<svg width="208" height="208" viewBox="0 0 208 208" fill="none" xmlns="http://www.w3.org/2000/svg">
<path d="M111.21 89.4632C112.17 89.0928 113.08 88.6382 113.972 88.0825L111.21 89.4632Z" fill="#EF9F7C" stroke="#706000" stroke-width="0.841872" stroke-linecap="round" stroke-linejoin="round"/>
<path d="M127.576 166.545L126.095 172.505L118.198 204.227L55.5963 168.077L46.2012 119.552L87.7897 143.562L127.576 166.545Z" fill="#EF9F7C" stroke="#706000" stroke-width="0.841872" stroke-linecap="round" stroke-linejoin="round"/>
<path d="M143.236 132.484V168.398L134.245 163.212L86.2243 135.481L52.8692 116.219L30.5596 103.338V67.4237L80.6341 96.3336V81.2472C74.4548 76.5327 68.9826 70.7407 64.2345 63.8878C62.0961 60.7897 60.1093 57.4896 58.2572 53.9537L58.1058 53.6506C52.2632 42.4201 49.3333 31.4757 49.3333 20.8008C59.7725 26.8117 68.629 36.1229 75.9365 48.7341C78.2769 52.7751 80.2469 56.7656 81.8296 60.7392C85.2139 69.1579 86.8977 77.442 86.8977 85.5744C86.8977 77.442 88.5814 71.1279 91.9657 66.5986C93.5316 64.4434 95.5016 62.7092 97.842 61.379C98.3808 61.076 98.9194 60.7897 99.4751 60.5708C102.085 59.3585 104.88 58.7861 107.86 58.8366C111.665 58.8871 115.774 59.9142 120.185 61.9515C120.455 62.0694 120.707 62.2041 120.977 62.3219C122.105 62.8776 123.267 63.5005 124.445 64.174C124.445 74.9332 121.482 82.5605 115.538 87.0393C115.033 87.4266 114.528 87.7802 113.989 88.0664H113.972L111.211 89.4639L111.06 89.5312C105.958 91.5012 99.997 91.1645 93.161 88.4705V103.557L143.236 132.484Z" fill="#EF9F7C" stroke="#706000" stroke-width="0.841872" stroke-linecap="round" stroke-linejoin="round"/>
<path d="M111.21 89.4632C112.17 89.0928 113.08 88.6382 113.972 88.0825L111.21 89.4632Z" fill="#EF9F7C" stroke="#706000" stroke-width="0.841872" stroke-linecap="round" stroke-linejoin="round"/>
<path d="M134.244 163.211L127.576 166.545L87.7897 143.562L46.2012 119.552L52.8688 116.218L86.224 135.48L134.244 163.211Z" fill="#EF9F7C" stroke="#706000" stroke-width="0.841872" stroke-linecap="round" stroke-linejoin="round"/>
<path d="M158.508 160.771L151.874 187.391L118.199 204.228L126.095 172.507L127.577 166.546L134.245 163.212L143.236 168.398L158.508 160.771Z" fill="#EF9F7C" stroke="#706000" stroke-width="0.841872" stroke-linecap="round" stroke-linejoin="round"/>
<path d="M176.91 115.646V151.56L158.507 160.754V160.77L143.235 168.398V132.483L143.572 132.315L176.91 115.646Z" fill="#EF9F7C" stroke="#706000" stroke-width="0.841872" stroke-linecap="round" stroke-linejoin="round"/>
<path d="M176.911 115.646L143.572 132.315L143.236 132.483L93.1611 103.556L93.4979 103.388L126.836 86.719L176.911 115.646Z" fill="#EF9F7C" stroke="#706000" stroke-width="0.841872" stroke-linecap="round" stroke-linejoin="round"/>
<path d="M126.836 81.6675V86.7187L93.4979 103.388L93.1611 103.203V88.4698C99.9971 91.1638 105.958 91.5006 111.06 89.5306L111.211 89.4632C112.171 89.0928 113.08 88.6382 113.972 88.0826H113.989L126.836 81.6675Z" fill="#EF9F7C" stroke="#706000" stroke-width="0.841872" stroke-linecap="round" stroke-linejoin="round"/>
<path d="M158.12 47.3362C158.12 58.0953 155.157 65.7227 149.213 70.2014C148.051 71.0601 146.839 71.7842 145.576 72.3398L145.256 72.4913L126.836 81.6677L113.989 88.066C114.528 87.7797 115.033 87.4261 115.538 87.0389C121.482 82.5601 124.445 74.9327 124.445 64.1736L158.12 47.3362Z" fill="#EF9F7C" stroke="#706000" stroke-width="0.841872" stroke-linecap="round" stroke-linejoin="round"/>
<path d="M118.029 51.2761L106.209 57.1861L99.4743 60.5704C98.9186 60.7893 98.3798 61.0755 97.841 61.3786C95.5006 62.7087 93.5307 64.443 91.9648 66.5982C88.5804 71.1275 86.8967 77.4415 86.8967 85.574C86.8967 77.4415 85.213 69.1575 81.8286 60.7388C80.2459 56.7651 78.2759 52.7747 75.9355 48.7337C68.6281 36.1224 59.7717 26.8113 49.3325 20.8003L83.0072 3.96289C93.4465 9.97386 102.303 19.285 109.61 31.8962C113.416 38.446 116.228 44.8947 118.029 51.2761Z" fill="#EF9F7C" stroke="#706000" stroke-width="0.841872" stroke-linecap="round" stroke-linejoin="round"/>
<path d="M158.12 47.3366L124.445 64.1741C123.267 63.5006 122.105 62.8776 120.977 62.322C120.707 62.2041 120.455 62.0694 120.185 61.9516C115.774 59.9142 111.665 58.8871 107.86 58.8366C104.88 58.7861 102.085 59.3586 99.4751 60.5709L106.21 57.1866L118.03 51.2766L131.517 44.5416C138.824 40.3828 147.698 41.3088 158.12 47.3366Z" fill="#EF9F7C" stroke="#706000" stroke-width="0.841872" stroke-linecap="round" stroke-linejoin="round"/>
<path d="M99.4752 60.571L98.8862 60.8573L99.4752 60.571Z" fill="#EF9F7C"/>
<path d="M99.4752 60.571L98.8862 60.8573" stroke="#706000" stroke-width="0.841872" stroke-linecap="round" stroke-linejoin="round"/>
<path d="M80.6341 81.247V96.3333L30.5596 67.4234L58.1058 53.6504L58.2572 53.9535C60.1093 57.4893 62.0961 60.7895 64.2345 63.8876C68.9826 70.7404 74.4548 76.5325 80.6341 81.247Z" fill="#EF9F7C" stroke="#706000" stroke-width="0.841872" stroke-linecap="round" stroke-linejoin="round"/>
</svg>
