<svg width="1063" height="347" viewBox="0 0 1063 347" fill="none" xmlns="http://www.w3.org/2000/svg">
<g clip-path="url(#clip0_518_1032)">
<path d="M1053.74 343.416H1052.99H870.73C865.674 343.416 861.603 339.344 861.603 334.289V214.935C861.603 209.88 865.674 205.808 870.73 205.808H955.549C957.902 205.808 959.76 203.906 959.76 201.597V191.912C959.76 172.641 943.974 156.79 924.706 156.657C924.706 156.657 924.706 156.657 924.706 156.657L870.638 156.265L870.637 156.265C865.613 156.235 861.57 152.164 861.57 147.138V79.3086C861.57 75.0548 864.516 71.3383 868.644 70.3875C880.027 67.7932 891.897 66.3988 904.057 66.3988C929.224 66.3988 953.058 72.3009 974.167 82.807L974.168 82.8073C1004.13 97.6925 1028.71 121.756 1044.18 151.363L1044.97 150.954L1044.18 151.363C1054.3 170.723 1060.56 192.417 1061.82 215.505C1061.95 217.949 1062.05 304.427 1062.08 334.323C1062.08 339.115 1058.42 343.023 1053.74 343.416Z" stroke="url(#paint0_linear_518_1032)" stroke-width="1.76872"/>
<path d="M834.075 65.6483C838.866 65.6483 842.776 69.3349 843.17 73.999V74.7753V194.912C843.17 199.967 839.098 204.039 834.043 204.039L834.034 204.039L773.672 204.626C752.837 204.826 736.077 221.788 736.077 242.621V335.071C736.077 340.127 732.006 344.198 726.95 344.198H653.871C648.815 344.198 644.744 340.127 644.744 335.071H643.859C644.744 335.071 644.744 335.07 644.744 335.069L644.744 335.064L644.744 335.043L644.744 334.96L644.743 334.633L644.743 333.356L644.742 328.506L644.738 311.168C644.734 296.804 644.729 277.614 644.723 258.31C644.711 219.87 644.695 180.969 644.678 178.852C647.604 115.823 697.776 65.6483 761.485 65.6483H834.075Z" stroke="url(#paint1_linear_518_1032)" stroke-width="1.76872"/>
<path d="M150.067 1.31648L150.069 1.31778L184.338 24.7942C184.339 24.7947 184.339 24.7952 184.34 24.7957C185.528 25.6219 185.779 27.2237 184.899 28.3444C181.336 32.791 174.358 41.3884 169.997 45.7822C158.773 57.071 145.96 66.7375 131.947 74.4252C131.947 74.4253 131.947 74.4253 131.947 74.4254L125.166 78.1419C125.165 78.1422 125.165 78.1425 125.164 78.1428C124.375 78.5725 123.432 78.5173 122.737 78.0307L122.73 78.0258L88.9459 54.8724L88.9419 54.8697C87.4781 53.8781 87.6193 51.6794 89.177 50.8769L89.1779 50.8764C107.964 41.1721 124.683 27.9931 138.549 12.1273L138.55 12.1258C140.757 9.59025 144.491 4.77365 146.737 1.84405C147.529 0.81249 148.99 0.574624 150.067 1.31648Z" stroke="url(#paint2_linear_518_1032)" stroke-width="1.76872"/>
<path d="M10.0114 66.8839H66.1338C71.1745 66.8839 75.2608 70.9702 75.2608 76.0109V334.709C75.2608 339.75 71.1745 343.836 66.1338 343.836H10.0114C4.97067 343.836 0.884359 339.75 0.884359 334.709V76.0109C0.884359 70.9702 4.97067 66.8839 10.0114 66.8839Z" stroke="url(#paint3_linear_518_1032)" stroke-width="1.76872"/>
<path d="M361.708 225.977C361.822 231.347 362.187 248.479 361.724 257.62H361.697L361.646 258.45C360.382 278.878 353.979 300.69 338.147 317.36C322.332 334.012 296.997 345.651 257.624 345.537C199.675 345.376 160.055 303.641 160.055 249.373V161.619V160.734H159.17H125.288C120.233 160.734 116.161 156.663 116.161 151.607V128.356C116.161 123.301 120.233 119.229 125.288 119.229H161.257H162.142V118.345V79.8319C162.142 74.7766 166.214 70.7049 171.269 70.7049H226.38C231.436 70.7049 235.507 74.7766 235.507 79.8319V118.345V119.229H236.392H288.014C293.069 119.229 297.141 123.301 297.141 128.356V151.607C297.141 156.663 293.069 160.734 288.014 160.734H236.392H235.507V161.619V242.068V242.082L235.508 242.095C235.787 251.262 237.297 257.743 239.481 262.003C241.668 266.268 244.602 268.419 247.714 268.595C250.797 268.771 253.729 266.987 255.884 264.101C258.049 261.202 259.51 257.103 259.679 252.372L259.679 252.37C260.168 237.77 260.495 225.032 260.495 224.915V224.25C260.712 219.377 264.664 215.523 269.531 215.462C269.532 215.462 269.534 215.462 269.535 215.462L352.426 214.81L352.43 214.81C357.421 214.751 361.521 218.699 361.677 223.657V224.361C361.677 224.507 361.689 225.076 361.708 225.977Z" stroke="url(#paint4_linear_518_1032)" stroke-width="1.76872"/>
<path d="M603.32 69.2667C608.376 69.2667 612.448 73.3384 612.448 78.3937V240.565C612.448 272.501 601.207 298.709 581.322 316.939C561.43 335.176 532.808 345.501 497.924 345.501C463.04 345.501 434.426 335.176 414.542 316.939C394.666 298.709 383.433 272.501 383.433 240.565V78.3937C383.433 73.3384 387.504 69.2667 392.56 69.2667H447.671C452.727 69.2667 456.798 73.3384 456.798 78.3937V234.63C456.798 248.174 458.664 258.286 463.013 265.025C467.419 271.851 474.282 275.087 483.87 275.071C488.644 275.062 492.581 274.258 495.79 272.572C499.011 270.879 501.437 268.328 503.23 264.935C506.784 258.21 507.874 248.125 507.874 234.63V78.3937C507.874 73.3384 511.946 69.2667 517.001 69.2667H603.32Z" stroke="url(#paint5_linear_518_1032)" stroke-width="1.76872"/>
<path d="M987.255 276.955C969.122 280.563 954.846 294.84 951.238 312.972C947.63 294.84 933.354 280.563 915.221 276.955C933.354 273.348 947.63 259.071 951.238 240.939C954.846 259.071 969.122 273.348 987.255 276.955Z" stroke="url(#paint6_linear_518_1032)" stroke-width="1.76872"/>
</g>
<defs>
<linearGradient id="paint0_linear_518_1032" x1="911" y1="24.5" x2="919" y2="284.5" gradientUnits="userSpaceOnUse">
<stop stop-color="white"/>
<stop offset="1" stop-color="white" stop-opacity="0"/>
</linearGradient>
<linearGradient id="paint1_linear_518_1032" x1="688" y1="32.5" x2="686" y2="280" gradientUnits="userSpaceOnUse">
<stop stop-color="white"/>
<stop offset="1" stop-color="white" stop-opacity="0"/>
</linearGradient>
<linearGradient id="paint2_linear_518_1032" x1="137" y1="-49.5" x2="137" y2="95" gradientUnits="userSpaceOnUse">
<stop stop-color="white"/>
<stop offset="1" stop-color="white" stop-opacity="0"/>
</linearGradient>
<linearGradient id="paint3_linear_518_1032" x1="26" y1="66" x2="27.5" y2="276.5" gradientUnits="userSpaceOnUse">
<stop stop-color="white"/>
<stop offset="1" stop-color="white" stop-opacity="0"/>
</linearGradient>
<linearGradient id="paint4_linear_518_1032" x1="188" y1="27.5" x2="183" y2="284.5" gradientUnits="userSpaceOnUse">
<stop stop-color="white"/>
<stop offset="1" stop-color="white" stop-opacity="0"/>
</linearGradient>
<linearGradient id="paint5_linear_518_1032" x1="498" y1="13" x2="498" y2="263.5" gradientUnits="userSpaceOnUse">
<stop stop-color="white"/>
<stop offset="1" stop-color="white" stop-opacity="0"/>
</linearGradient>
<linearGradient id="paint6_linear_518_1032" x1="951" y1="198" x2="951" y2="288" gradientUnits="userSpaceOnUse">
<stop stop-color="white"/>
<stop offset="1" stop-color="white" stop-opacity="0"/>
</linearGradient>
<clipPath id="clip0_518_1032">
<rect width="1063" height="346.387" fill="white"/>
</clipPath>
</defs>
</svg>
