<svg width="1264" height="144" viewBox="0 0 1264 144" fill="none" xmlns="http://www.w3.org/2000/svg">
<mask id="path-1-outside-1_198_10" maskUnits="userSpaceOnUse" x="-1" y="-1.45532" width="1266" height="146" fill="black">
<rect fill="white" x="-1" y="-1.45532" width="1266" height="146"/>
<path d="M0.653658 118.545V0.342986H82.8954V21.6526H25.9588V48.789H80.8976V69.7657H25.9588V97.2351H84.2272V118.545H0.653658ZM101.22 118.545V29.3107H123.695L124.194 43.9611C129.189 31.9744 138.845 27.3129 150.665 27.3129C169.81 27.3129 180.965 40.465 180.965 61.1086V118.545H155.992V69.4327C155.992 55.1153 152.829 47.1242 142.341 47.1242C132.019 47.1242 126.192 55.1153 126.192 69.4327V118.545H101.22ZM240.004 120.542C212.535 120.542 194.721 102.063 194.721 73.9277C194.721 45.7924 212.535 27.3129 240.004 27.3129C263.645 27.3129 280.959 40.2985 283.622 62.274L257.818 63.4394C256.153 52.4516 249.494 46.6248 240.004 46.6248C227.518 46.6248 220.359 56.6137 220.359 73.9277C220.359 91.2418 227.518 101.397 240.004 101.397C249.66 101.397 256.486 95.7367 257.818 83.5836L283.622 84.5825C281.125 106.558 264.144 120.542 240.004 120.542ZM337.025 120.542C309.722 120.542 291.742 102.23 291.742 73.9277C291.742 45.7924 309.722 27.3129 337.025 27.3129C364.328 27.3129 382.308 45.7924 382.308 73.9277C382.308 102.23 364.328 120.542 337.025 120.542ZM337.025 101.397C349.511 101.397 356.503 91.2418 356.503 73.9277C356.503 56.6137 349.511 46.4583 337.025 46.4583C324.539 46.4583 317.38 56.6137 317.38 73.9277C317.38 91.2418 324.539 101.397 337.025 101.397ZM396.672 118.545V29.3107H419.147L419.647 43.7946C424.308 33.3063 433.298 27.3129 443.953 27.3129C456.772 27.3129 465.595 34.1387 469.425 45.4594C473.753 33.6392 482.743 27.3129 494.563 27.3129C512.876 27.3129 524.53 39.1331 524.53 61.1086V118.545H499.558V68.1009C499.558 54.1164 495.396 47.1242 486.073 47.1242C476.916 47.1242 471.755 54.9488 471.755 68.4338V118.545H449.28V68.4338C449.28 54.6159 445.618 47.1242 435.962 47.1242C426.805 47.1242 421.644 54.9488 421.644 68.4338V118.545H396.672ZM542.304 143.517V29.3107H566.278L566.611 42.7957C571.771 32.8068 581.261 27.3129 593.081 27.3129C618.053 27.3129 630.706 47.7901 630.706 73.9277C630.706 100.065 617.887 120.542 592.915 120.542C581.927 120.542 572.271 115.215 567.276 106.225V143.517H542.304ZM586.089 101.397C597.743 101.397 605.068 90.9088 605.068 73.9277C605.068 56.9466 597.743 46.4583 586.089 46.4583C574.435 46.4583 567.276 55.9477 567.276 73.9277C567.276 91.9077 574.269 101.397 586.089 101.397ZM672.307 120.542C653.661 120.542 641.008 111.552 641.008 96.2362C641.008 80.587 650.831 72.5958 670.309 68.6003L699.11 62.9399C699.11 51.2863 693.783 45.4594 683.794 45.4594C674.471 45.4594 669.144 49.9544 667.479 58.2785L642.507 57.1131C645.836 37.4683 660.653 27.3129 683.794 27.3129C710.431 27.3129 724.082 40.2985 724.082 64.6048V95.0708C724.082 100.065 725.747 101.397 729.077 101.397H731.574V118.545C729.909 119.044 726.08 119.544 722.584 119.544C713.428 119.544 705.27 116.38 703.106 105.06C698.444 114.549 687.456 120.542 672.307 120.542ZM678.3 103.395C690.786 103.395 699.11 95.7367 699.11 82.9177V78.5892L678.799 82.9177C670.642 84.5825 666.646 88.0786 666.646 93.9055C666.646 99.8988 670.642 103.395 678.3 103.395ZM782.603 120.542C754.967 120.542 741.149 107.89 739.817 90.4093L765.123 89.5769C766.621 98.0675 771.948 102.895 782.77 102.895C791.593 102.895 796.92 100.065 796.92 94.0719C796.92 88.5781 793.924 85.9144 778.774 83.4171C750.472 78.7557 741.982 71.4305 741.982 55.9477C741.982 38.8002 755.134 27.3129 781.604 27.3129C806.743 27.3129 819.728 40.132 821.893 57.9455L796.92 58.9444C795.755 50.2874 790.261 44.96 781.271 44.96C772.448 44.96 767.62 48.9555 767.62 54.9488C767.62 61.4416 771.948 64.1053 784.268 65.9366C812.903 70.0986 822.559 78.0897 822.559 93.5725C822.559 110.887 807.076 120.542 782.603 120.542ZM875.397 120.542C847.761 120.542 833.943 107.89 832.611 90.4093L857.916 89.5769C859.415 98.0675 864.742 102.895 875.563 102.895C884.387 102.895 889.714 100.065 889.714 94.0719C889.714 88.5781 886.718 85.9144 871.568 83.4171C843.266 78.7557 834.775 71.4305 834.775 55.9477C834.775 38.8002 847.927 27.3129 874.398 27.3129C899.537 27.3129 912.522 40.132 914.686 57.9455L889.714 58.9444C888.549 50.2874 883.055 44.96 874.065 44.96C865.242 44.96 860.414 48.9555 860.414 54.9488C860.414 61.4416 864.742 64.1053 877.062 65.9366C905.696 70.0986 915.352 78.0897 915.352 93.5725C915.352 110.887 899.87 120.542 875.397 120.542ZM947.881 118.545L916.083 0.342986H942.387L962.698 83.5836L983.342 0.342986H1005.48L1025.96 83.5836L1046.11 0.342986H1072.74L1040.78 118.545H1013.64L994.33 42.9622L975.018 118.545H947.881ZM1115.17 120.542C1087.87 120.542 1070.22 102.063 1070.22 73.9277C1070.22 45.7924 1087.87 27.3129 1115.01 27.3129C1141.48 27.3129 1158.63 45.6259 1158.63 75.5925V80.587H1096.03C1096.53 94.7379 1104.02 101.564 1115.67 101.564C1124 101.564 1129.82 98.0675 1132.32 90.7423L1157.46 92.2406C1152.63 110.054 1136.65 120.542 1115.17 120.542ZM1133.15 65.2707C1132.49 52.2851 1125.33 45.7924 1115.01 45.7924C1104.52 45.7924 1097.36 52.9511 1096.03 65.2707H1133.15ZM1197 118.545C1182.51 118.545 1173.69 111.719 1173.69 95.2373V0.342986H1198.66V92.5736C1198.66 97.901 1201.16 99.8988 1205.82 99.8988H1211.82V118.545H1197ZM1248.33 118.545C1233.85 118.545 1225.03 111.719 1225.03 95.2373V0.342986H1250V92.5736C1250 97.901 1252.5 99.8988 1257.16 99.8988H1263.15V118.545H1248.33Z"/>
</mask>
<path d="M0.653658 118.545V0.342986H82.8954V21.6526H25.9588V48.789H80.8976V69.7657H25.9588V97.2351H84.2272V118.545H0.653658ZM101.22 118.545V29.3107H123.695L124.194 43.9611C129.189 31.9744 138.845 27.3129 150.665 27.3129C169.81 27.3129 180.965 40.465 180.965 61.1086V118.545H155.992V69.4327C155.992 55.1153 152.829 47.1242 142.341 47.1242C132.019 47.1242 126.192 55.1153 126.192 69.4327V118.545H101.22ZM240.004 120.542C212.535 120.542 194.721 102.063 194.721 73.9277C194.721 45.7924 212.535 27.3129 240.004 27.3129C263.645 27.3129 280.959 40.2985 283.622 62.274L257.818 63.4394C256.153 52.4516 249.494 46.6248 240.004 46.6248C227.518 46.6248 220.359 56.6137 220.359 73.9277C220.359 91.2418 227.518 101.397 240.004 101.397C249.66 101.397 256.486 95.7367 257.818 83.5836L283.622 84.5825C281.125 106.558 264.144 120.542 240.004 120.542ZM337.025 120.542C309.722 120.542 291.742 102.23 291.742 73.9277C291.742 45.7924 309.722 27.3129 337.025 27.3129C364.328 27.3129 382.308 45.7924 382.308 73.9277C382.308 102.23 364.328 120.542 337.025 120.542ZM337.025 101.397C349.511 101.397 356.503 91.2418 356.503 73.9277C356.503 56.6137 349.511 46.4583 337.025 46.4583C324.539 46.4583 317.38 56.6137 317.38 73.9277C317.38 91.2418 324.539 101.397 337.025 101.397ZM396.672 118.545V29.3107H419.147L419.647 43.7946C424.308 33.3063 433.298 27.3129 443.953 27.3129C456.772 27.3129 465.595 34.1387 469.425 45.4594C473.753 33.6392 482.743 27.3129 494.563 27.3129C512.876 27.3129 524.53 39.1331 524.53 61.1086V118.545H499.558V68.1009C499.558 54.1164 495.396 47.1242 486.073 47.1242C476.916 47.1242 471.755 54.9488 471.755 68.4338V118.545H449.28V68.4338C449.28 54.6159 445.618 47.1242 435.962 47.1242C426.805 47.1242 421.644 54.9488 421.644 68.4338V118.545H396.672ZM542.304 143.517V29.3107H566.278L566.611 42.7957C571.771 32.8068 581.261 27.3129 593.081 27.3129C618.053 27.3129 630.706 47.7901 630.706 73.9277C630.706 100.065 617.887 120.542 592.915 120.542C581.927 120.542 572.271 115.215 567.276 106.225V143.517H542.304ZM586.089 101.397C597.743 101.397 605.068 90.9088 605.068 73.9277C605.068 56.9466 597.743 46.4583 586.089 46.4583C574.435 46.4583 567.276 55.9477 567.276 73.9277C567.276 91.9077 574.269 101.397 586.089 101.397ZM672.307 120.542C653.661 120.542 641.008 111.552 641.008 96.2362C641.008 80.587 650.831 72.5958 670.309 68.6003L699.11 62.9399C699.11 51.2863 693.783 45.4594 683.794 45.4594C674.471 45.4594 669.144 49.9544 667.479 58.2785L642.507 57.1131C645.836 37.4683 660.653 27.3129 683.794 27.3129C710.431 27.3129 724.082 40.2985 724.082 64.6048V95.0708C724.082 100.065 725.747 101.397 729.077 101.397H731.574V118.545C729.909 119.044 726.08 119.544 722.584 119.544C713.428 119.544 705.27 116.38 703.106 105.06C698.444 114.549 687.456 120.542 672.307 120.542ZM678.3 103.395C690.786 103.395 699.11 95.7367 699.11 82.9177V78.5892L678.799 82.9177C670.642 84.5825 666.646 88.0786 666.646 93.9055C666.646 99.8988 670.642 103.395 678.3 103.395ZM782.603 120.542C754.967 120.542 741.149 107.89 739.817 90.4093L765.123 89.5769C766.621 98.0675 771.948 102.895 782.77 102.895C791.593 102.895 796.92 100.065 796.92 94.0719C796.92 88.5781 793.924 85.9144 778.774 83.4171C750.472 78.7557 741.982 71.4305 741.982 55.9477C741.982 38.8002 755.134 27.3129 781.604 27.3129C806.743 27.3129 819.728 40.132 821.893 57.9455L796.92 58.9444C795.755 50.2874 790.261 44.96 781.271 44.96C772.448 44.96 767.62 48.9555 767.62 54.9488C767.62 61.4416 771.948 64.1053 784.268 65.9366C812.903 70.0986 822.559 78.0897 822.559 93.5725C822.559 110.887 807.076 120.542 782.603 120.542ZM875.397 120.542C847.761 120.542 833.943 107.89 832.611 90.4093L857.916 89.5769C859.415 98.0675 864.742 102.895 875.563 102.895C884.387 102.895 889.714 100.065 889.714 94.0719C889.714 88.5781 886.718 85.9144 871.568 83.4171C843.266 78.7557 834.775 71.4305 834.775 55.9477C834.775 38.8002 847.927 27.3129 874.398 27.3129C899.537 27.3129 912.522 40.132 914.686 57.9455L889.714 58.9444C888.549 50.2874 883.055 44.96 874.065 44.96C865.242 44.96 860.414 48.9555 860.414 54.9488C860.414 61.4416 864.742 64.1053 877.062 65.9366C905.696 70.0986 915.352 78.0897 915.352 93.5725C915.352 110.887 899.87 120.542 875.397 120.542ZM947.881 118.545L916.083 0.342986H942.387L962.698 83.5836L983.342 0.342986H1005.48L1025.96 83.5836L1046.11 0.342986H1072.74L1040.78 118.545H1013.64L994.33 42.9622L975.018 118.545H947.881ZM1115.17 120.542C1087.87 120.542 1070.22 102.063 1070.22 73.9277C1070.22 45.7924 1087.87 27.3129 1115.01 27.3129C1141.48 27.3129 1158.63 45.6259 1158.63 75.5925V80.587H1096.03C1096.53 94.7379 1104.02 101.564 1115.67 101.564C1124 101.564 1129.82 98.0675 1132.32 90.7423L1157.46 92.2406C1152.63 110.054 1136.65 120.542 1115.17 120.542ZM1133.15 65.2707C1132.49 52.2851 1125.33 45.7924 1115.01 45.7924C1104.52 45.7924 1097.36 52.9511 1096.03 65.2707H1133.15ZM1197 118.545C1182.51 118.545 1173.69 111.719 1173.69 95.2373V0.342986H1198.66V92.5736C1198.66 97.901 1201.16 99.8988 1205.82 99.8988H1211.82V118.545H1197ZM1248.33 118.545C1233.85 118.545 1225.03 111.719 1225.03 95.2373V0.342986H1250V92.5736C1250 97.901 1252.5 99.8988 1257.16 99.8988H1263.15V118.545H1248.33Z" fill="url(#paint0_linear_198_10)"/>
<path d="M0.653658 118.545H-0.240271V119.439H0.653658V118.545ZM0.653658 0.342987V-0.550941H-0.240271V0.342987H0.653658ZM82.8954 0.342987H83.7893V-0.550941H82.8954V0.342987ZM82.8954 21.6526V22.5465H83.7893V21.6526H82.8954ZM25.9588 21.6526V20.7587H25.0649V21.6526H25.9588ZM25.9588 48.789H25.0649V49.683H25.9588V48.789ZM80.8976 48.789H81.7916V47.8951H80.8976V48.789ZM80.8976 69.7657V70.6596H81.7916V69.7657H80.8976ZM25.9588 69.7657V68.8717H25.0649V69.7657H25.9588ZM25.9588 97.2351H25.0649V98.129H25.9588V97.2351ZM84.2272 97.2351H85.1212V96.3411H84.2272V97.2351ZM84.2272 118.545V119.439H85.1212V118.545H84.2272ZM1.54759 118.545V0.342987H-0.240271V118.545H1.54759ZM0.653658 1.23692H82.8954V-0.550941H0.653658V1.23692ZM82.0015 0.342987V21.6526H83.7893V0.342987H82.0015ZM82.8954 20.7587H25.9588V22.5465H82.8954V20.7587ZM25.0649 21.6526V48.789H26.8527V21.6526H25.0649ZM25.9588 49.683H80.8976V47.8951H25.9588V49.683ZM80.0037 48.789V69.7657H81.7916V48.789H80.0037ZM80.8976 68.8717H25.9588V70.6596H80.8976V68.8717ZM25.0649 69.7657V97.2351H26.8527V69.7657H25.0649ZM25.9588 98.129H84.2272V96.3411H25.9588V98.129ZM83.3333 97.2351V118.545H85.1212V97.2351H83.3333ZM84.2272 117.651H0.653658V119.439H84.2272V117.651ZM101.22 118.545H100.326V119.439H101.22V118.545ZM101.22 29.3107V28.4168H100.326V29.3107H101.22ZM123.695 29.3107L124.588 29.2803L124.559 28.4168H123.695V29.3107ZM124.194 43.9611L123.301 43.9915L125.02 44.3049L124.194 43.9611ZM180.965 118.545V119.439H181.858V118.545H180.965ZM155.992 118.545H155.098V119.439H155.992V118.545ZM126.192 118.545V119.439H127.086V118.545H126.192ZM102.114 118.545V29.3107H100.326V118.545H102.114ZM101.22 30.2047H123.695V28.4168H101.22V30.2047ZM122.802 29.3412L123.301 43.9915L125.088 43.9306L124.588 29.2803L122.802 29.3412ZM125.02 44.3049C127.45 38.4721 130.991 34.468 135.324 31.912C139.668 29.3498 144.869 28.2069 150.665 28.2069V26.419C144.641 26.419 139.104 27.6068 134.416 30.3721C129.718 33.1434 125.933 37.4634 123.369 43.6173L125.02 44.3049ZM150.665 28.2069C160.021 28.2069 167.337 31.4127 172.324 37.0611C177.324 42.7239 180.071 50.9407 180.071 61.1086H181.858C181.858 50.6329 179.028 41.9519 173.664 35.8777C168.288 29.7892 160.454 26.419 150.665 26.419V28.2069ZM180.071 61.1086V118.545H181.858V61.1086H180.071ZM180.965 117.651H155.992V119.439H180.965V117.651ZM156.886 118.545V69.4327H155.098V118.545H156.886ZM156.886 69.4327C156.886 62.2491 156.101 56.4745 153.881 52.4757C152.76 50.4547 151.267 48.8774 149.329 47.813C147.396 46.7516 145.076 46.2303 142.341 46.2303V48.0182C144.85 48.0182 146.858 48.4957 148.468 49.3801C150.073 50.2614 151.338 51.5767 152.318 53.3432C154.303 56.9193 155.098 62.2989 155.098 69.4327H156.886ZM142.341 46.2303C136.919 46.2303 132.602 48.3457 129.672 52.3846C126.773 56.3823 125.298 62.1721 125.298 69.4327H127.086C127.086 62.376 128.525 57.0114 131.12 53.4343C133.684 49.8983 137.441 48.0182 142.341 48.0182V46.2303ZM125.298 69.4327V118.545H127.086V69.4327H125.298ZM126.192 117.651H101.22V119.439H126.192V117.651ZM283.622 62.274L283.663 63.167L284.626 63.1235L284.51 62.1664L283.622 62.274ZM257.818 63.4394L256.934 63.5733L257.054 64.3687L257.858 64.3324L257.818 63.4394ZM257.818 83.5836L257.852 82.6904L257.02 82.6581L256.929 83.4862L257.818 83.5836ZM283.622 84.5825L284.511 84.6834L284.619 83.7265L283.657 83.6892L283.622 84.5825ZM240.004 119.649C226.476 119.649 215.399 115.103 207.704 107.164C200.005 99.2215 195.615 87.8051 195.615 73.9277H193.827C193.827 88.1857 198.344 100.077 206.42 108.408C214.498 116.742 226.063 121.436 240.004 121.436V119.649ZM195.615 73.9277C195.615 60.0503 200.005 48.6339 207.704 40.6917C215.399 32.7525 226.476 28.2069 240.004 28.2069V26.419C226.063 26.419 214.498 31.1132 206.42 39.4474C198.344 47.7788 193.827 59.6697 193.827 73.9277H195.615ZM240.004 28.2069C251.664 28.2069 261.696 31.4083 269.127 37.2552C276.548 43.0945 281.43 51.6158 282.735 62.3816L284.51 62.1664C283.151 50.9567 278.045 41.9975 270.232 35.8501C262.43 29.7103 251.985 26.419 240.004 26.419V28.2069ZM283.582 61.381L257.777 62.5464L257.858 64.3324L283.663 63.167L283.582 61.381ZM258.702 63.3055C257.847 57.6621 255.694 53.2547 252.452 50.2555C249.204 47.2505 244.939 45.7309 240.004 45.7309V47.5187C244.559 47.5187 248.368 48.9125 251.238 51.5678C254.115 54.229 256.124 58.2289 256.934 63.5733L258.702 63.3055ZM240.004 45.7309C233.49 45.7309 228.302 48.3534 224.774 53.2617C221.274 58.1306 219.466 65.1657 219.466 73.9277H221.253C221.253 65.3757 223.024 58.7593 226.225 54.3052C229.398 49.8906 234.032 47.5187 240.004 47.5187V45.7309ZM219.466 73.9277C219.466 82.6899 221.274 89.7647 224.772 94.6738C228.297 99.6224 233.485 102.291 240.004 102.291V100.503C234.038 100.503 229.403 98.0941 226.228 93.6365C223.024 89.1395 221.253 82.4795 221.253 73.9277H219.466ZM240.004 102.291C245.011 102.291 249.37 100.819 252.649 97.695C255.923 94.5764 258.025 89.9032 258.706 83.681L256.929 83.4862C256.279 89.4172 254.302 93.6508 251.416 96.4006C248.536 99.1446 244.653 100.503 240.004 100.503V102.291ZM257.783 84.4769L283.588 85.4758L283.657 83.6892L257.852 82.6904L257.783 84.4769ZM282.734 84.4816C281.51 95.2548 276.745 104.028 269.361 110.113C261.971 116.204 251.902 119.649 240.004 119.649V121.436C252.247 121.436 262.738 117.889 270.498 111.493C278.263 105.093 283.238 95.8858 284.511 84.6834L282.734 84.4816ZM337.025 119.649C323.579 119.649 312.502 115.144 304.785 107.224C297.067 99.303 292.636 87.8871 292.636 73.9277H290.848C290.848 88.2701 295.407 100.162 303.505 108.472C311.604 116.785 323.168 121.436 337.025 121.436V119.649ZM292.636 73.9277C292.636 60.0526 297.066 48.6358 304.786 40.6926C312.504 32.7518 323.582 28.2069 337.025 28.2069V26.419C323.166 26.419 311.602 31.1139 303.504 39.4466C295.408 47.7769 290.848 59.6675 290.848 73.9277H292.636ZM337.025 28.2069C350.469 28.2069 361.547 32.7518 369.264 40.6926C376.984 48.6358 381.414 60.0526 381.414 73.9277H383.202C383.202 59.6675 378.642 47.7769 370.546 39.4466C362.448 31.1139 350.884 26.419 337.025 26.419V28.2069ZM381.414 73.9277C381.414 87.8871 376.983 99.303 369.265 107.224C361.549 115.144 350.471 119.649 337.025 119.649V121.436C350.882 121.436 362.446 116.785 370.545 108.472C378.643 100.162 383.202 88.2701 383.202 73.9277H381.414ZM337.025 102.291C343.546 102.291 348.694 99.621 352.178 94.6695C355.632 89.7599 357.397 82.6861 357.397 73.9277H355.609C355.609 82.4834 353.879 89.1442 350.715 93.6408C347.581 98.0955 342.99 100.503 337.025 100.503V102.291ZM357.397 73.9277C357.397 65.1693 355.632 58.0955 352.178 53.1859C348.694 48.2343 343.546 45.5644 337.025 45.5644V47.3522C342.99 47.3522 347.581 49.7599 350.715 54.2146C353.879 58.7112 355.609 65.372 355.609 73.9277H357.397ZM337.025 45.5644C330.505 45.5644 325.318 48.233 321.792 53.1816C318.295 58.0907 316.486 65.1655 316.486 73.9277H318.274C318.274 65.3759 320.045 58.7159 323.249 54.2189C326.424 49.7613 331.059 47.3522 337.025 47.3522V45.5644ZM316.486 73.9277C316.486 82.6899 318.295 89.7647 321.792 94.6738C325.318 99.6224 330.505 102.291 337.025 102.291V100.503C331.059 100.503 326.424 98.0941 323.249 93.6365C320.045 89.1395 318.274 82.4795 318.274 73.9277H316.486ZM396.672 118.545H395.778V119.439H396.672V118.545ZM396.672 29.3107V28.4168H395.778V29.3107H396.672ZM419.147 29.3107L420.041 29.2799L420.011 28.4168H419.147V29.3107ZM419.647 43.7946L418.753 43.8254L420.464 44.1577L419.647 43.7946ZM469.425 45.4594L468.578 45.7458L469.391 48.1505L470.264 45.7668L469.425 45.4594ZM524.53 118.545V119.439H525.424V118.545H524.53ZM499.558 118.545H498.664V119.439H499.558V118.545ZM471.755 118.545V119.439H472.649V118.545H471.755ZM449.28 118.545H448.386V119.439H449.28V118.545ZM421.644 118.545V119.439H422.538V118.545H421.644ZM397.566 118.545V29.3107H395.778V118.545H397.566ZM396.672 30.2047H419.147V28.4168H396.672V30.2047ZM418.254 29.3415L418.753 43.8254L420.54 43.7638L420.041 29.2799L418.254 29.3415ZM420.464 44.1577C424.992 33.9692 433.676 28.2069 443.953 28.2069V26.419C432.92 26.419 423.625 32.6434 418.83 43.4315L420.464 44.1577ZM443.953 28.2069C450.199 28.2069 455.419 29.8675 459.534 32.8636C463.65 35.8607 466.713 40.2336 468.578 45.7458L470.271 45.173C468.307 39.3645 465.044 34.6642 460.586 31.4183C456.127 28.1712 450.526 26.419 443.953 26.419V28.2069ZM470.264 45.7668C472.376 39.9982 475.607 35.619 479.705 32.6801C483.802 29.7423 488.818 28.2069 494.563 28.2069V26.419C488.489 26.419 483.099 28.0468 478.664 31.2271C474.23 34.4064 470.801 39.1004 468.585 45.152L470.264 45.7668ZM494.563 28.2069C503.521 28.2069 510.753 31.0918 515.754 36.5725C520.764 42.0636 523.636 50.2721 523.636 61.1086H525.424C525.424 49.9696 522.469 41.2803 517.074 35.3675C511.67 29.4442 503.918 26.419 494.563 26.419V28.2069ZM523.636 61.1086V118.545H525.424V61.1086H523.636ZM524.53 117.651H499.558V119.439H524.53V117.651ZM500.452 118.545V68.1009H498.664V118.545H500.452ZM500.452 68.1009C500.452 61.0524 499.409 55.6024 497.067 51.8914C494.677 48.1028 491 46.2303 486.073 46.2303V48.0182C490.468 48.0182 493.534 49.6417 495.555 52.8454C497.626 56.1266 498.664 61.1648 498.664 68.1009H500.452ZM486.073 46.2303C481.197 46.2303 477.339 48.3343 474.737 52.2253C472.166 56.0706 470.861 61.5975 470.861 68.4338H472.649C472.649 61.7852 473.925 56.6572 476.223 53.219C478.492 49.8265 481.792 48.0182 486.073 48.0182V46.2303ZM470.861 68.4338V118.545H472.649V68.4338H470.861ZM471.755 117.651H449.28V119.439H471.755V117.651ZM450.174 118.545V68.4338H448.386V118.545H450.174ZM450.174 68.4338C450.174 61.481 449.259 55.9548 447.012 52.1433C445.878 50.2202 444.402 48.7287 442.541 47.724C440.684 46.7216 438.492 46.2303 435.962 46.2303V48.0182C438.26 48.0182 440.147 48.4633 441.692 49.2973C443.233 50.1292 444.483 51.3742 445.472 53.0513C447.47 56.4401 448.386 61.5686 448.386 68.4338H450.174ZM435.962 46.2303C431.086 46.2303 427.228 48.3343 424.626 52.2253C422.055 56.0706 420.75 61.5975 420.75 68.4338H422.538C422.538 61.7852 423.814 56.6572 426.113 53.219C428.381 49.8265 431.681 48.0182 435.962 48.0182V46.2303ZM420.75 68.4338V118.545H422.538V68.4338H420.75ZM421.644 117.651H396.672V119.439H421.644V117.651ZM542.304 143.517H541.41V144.411H542.304V143.517ZM542.304 29.3107V28.4168H541.41V29.3107H542.304ZM566.278 29.3107L567.171 29.2887L567.15 28.4168H566.278V29.3107ZM566.611 42.7957L565.717 42.8178L567.405 43.206L566.611 42.7957ZM567.276 106.225L568.058 105.791L566.383 102.775V106.225H567.276ZM567.276 143.517V144.411H568.17V143.517H567.276ZM543.198 143.517V29.3107H541.41V143.517H543.198ZM542.304 30.2047H566.278V28.4168H542.304V30.2047ZM565.384 29.3328L565.717 42.8178L567.504 42.7736L567.171 29.2887L565.384 29.3328ZM567.405 43.206C572.4 33.5372 581.568 28.2069 593.081 28.2069V26.419C580.953 26.419 571.143 32.0764 565.816 42.3854L567.405 43.206ZM593.081 28.2069C605.291 28.2069 614.43 33.1976 620.543 41.3548C626.679 49.5428 629.812 60.9891 629.812 73.9277H631.6C631.6 60.7287 628.407 48.8677 621.973 40.2827C615.517 31.6669 605.844 26.419 593.081 26.419V28.2069ZM629.812 73.9277C629.812 86.8639 626.638 98.3098 620.461 106.498C614.307 114.657 605.125 119.649 592.915 119.649V121.436C605.677 121.436 615.39 116.189 621.888 107.575C628.364 98.9905 631.6 87.1291 631.6 73.9277H629.812ZM592.915 119.649C582.218 119.649 572.879 114.469 568.058 105.791L566.495 106.659C571.663 115.961 581.636 121.436 592.915 121.436V119.649ZM566.383 106.225V143.517H568.17V106.225H566.383ZM567.276 142.623H542.304V144.411H567.276V142.623ZM586.089 102.291C592.223 102.291 597.236 99.5136 600.683 94.5395C604.108 89.5973 605.962 82.5317 605.962 73.9277H604.174C604.174 82.3048 602.365 88.9739 599.214 93.5211C596.085 98.0364 591.609 100.503 586.089 100.503V102.291ZM605.962 73.9277C605.962 65.3237 604.108 58.2581 600.683 53.3159C597.236 48.3418 592.223 45.5644 586.089 45.5644V47.3522C591.609 47.3522 596.085 49.819 599.214 54.3343C602.365 58.8815 604.174 65.5506 604.174 73.9277H605.962ZM586.089 45.5644C579.985 45.5644 575.003 48.0675 571.581 52.9365C568.189 57.7638 566.383 64.8383 566.383 73.9277H568.17C568.17 65.0371 569.943 58.3769 573.044 53.9645C576.115 49.5938 580.539 47.3522 586.089 47.3522V45.5644ZM566.383 73.9277C566.383 83.0131 568.146 90.0881 571.517 94.9166C574.92 99.7901 579.904 102.291 586.089 102.291V100.503C580.453 100.503 576.032 98.2594 572.983 93.8931C569.903 89.482 568.17 82.8223 568.17 73.9277H566.383ZM670.309 68.6003L670.137 67.7231L670.129 67.7246L670.309 68.6003ZM699.11 62.9399L699.283 63.8171L700.004 63.6753V62.9399H699.11ZM667.479 58.2785L667.437 59.1714L668.205 59.2072L668.355 58.4538L667.479 58.2785ZM642.507 57.1131L641.625 56.9637L641.456 57.959L642.465 58.0061L642.507 57.1131ZM731.574 101.397H732.468V100.503H731.574V101.397ZM731.574 118.545L731.831 119.401L732.468 119.21V118.545H731.574ZM703.106 105.06L703.984 104.892L703.482 102.267L702.303 104.666L703.106 105.06ZM699.11 78.5892H700.004V77.4847L698.924 77.7149L699.11 78.5892ZM678.799 82.9177L678.978 83.7936L678.986 83.792L678.799 82.9177ZM672.307 119.649C663.115 119.649 655.5 117.431 650.205 113.42C644.938 109.43 641.902 103.619 641.902 96.2362H640.114C640.114 104.17 643.405 110.512 649.125 114.845C654.819 119.159 662.852 121.436 672.307 121.436V119.649ZM641.902 96.2362C641.902 88.6231 644.279 82.9678 648.956 78.7091C653.673 74.4139 660.814 71.4606 670.489 69.476L670.129 67.7246C660.326 69.7355 652.816 72.7756 647.752 77.3872C642.648 82.0352 640.114 88.2001 640.114 96.2362H641.902ZM670.481 69.4774L699.283 63.8171L698.938 62.0628L670.137 67.7232L670.481 69.4774ZM700.004 62.9399C700.004 56.9936 698.647 52.3751 695.867 49.2368C693.07 46.0791 688.964 44.5655 683.794 44.5655V46.3533C688.613 46.3533 692.165 47.7531 694.529 50.4222C696.91 53.1108 698.216 57.2326 698.216 62.9399H700.004ZM683.794 44.5655C678.991 44.5655 675.112 45.7246 672.206 48.0494C669.297 50.3765 667.465 53.7903 666.602 58.1031L668.355 58.4538C669.158 54.4426 670.821 51.4469 673.323 49.4454C675.828 47.4417 679.274 46.3533 683.794 46.3533V44.5655ZM667.52 57.3855L642.548 56.2201L642.465 58.0061L667.437 59.1714L667.52 57.3855ZM643.388 57.2625C645.018 47.6454 649.441 40.4159 656.24 35.5744C663.056 30.7196 672.346 28.2069 683.794 28.2069V26.419C672.101 26.419 662.412 28.9839 655.202 34.1181C647.975 39.2654 643.325 46.936 641.625 56.9637L643.388 57.2625ZM683.794 28.2069C696.98 28.2069 706.798 31.4213 713.318 37.4979C719.826 43.5644 723.188 52.617 723.188 64.6048H724.976C724.976 52.2862 721.513 42.6929 714.536 36.1901C707.571 29.6974 697.245 26.419 683.794 26.419V28.2069ZM723.188 64.6048V95.0708H724.976V64.6048H723.188ZM723.188 95.0708C723.188 97.621 723.604 99.4827 724.656 100.693C725.744 101.944 727.32 102.291 729.077 102.291V100.503C727.504 100.503 726.583 100.184 726.006 99.5203C725.394 98.8166 724.976 97.515 724.976 95.0708H723.188ZM729.077 102.291H731.574V100.503H729.077V102.291ZM730.68 101.397V118.545H732.468V101.397H730.68ZM731.317 117.688C729.766 118.154 726.032 118.65 722.584 118.65V120.438C726.128 120.438 730.052 119.934 731.831 119.401L731.317 117.688ZM722.584 118.65C718.093 118.65 713.958 117.871 710.704 115.793C707.483 113.737 705.026 110.344 703.984 104.892L702.228 105.228C703.35 111.097 706.053 114.945 709.742 117.3C713.397 119.634 717.919 120.438 722.584 120.438V118.65ZM702.303 104.666C697.84 113.752 687.239 119.649 672.307 119.649V121.436C687.674 121.436 699.049 115.346 703.908 105.454L702.303 104.666ZM678.3 104.289C684.726 104.289 690.168 102.316 694.008 98.6065C697.853 94.8933 700.004 89.5265 700.004 82.9177H698.216C698.216 89.128 696.205 93.9998 692.766 97.3204C689.324 100.645 684.361 102.501 678.3 102.501V104.289ZM700.004 82.9177V78.5892H698.216V82.9177H700.004ZM698.924 77.7149L678.613 82.0434L678.986 83.792L699.297 79.4635L698.924 77.7149ZM678.621 82.0418C674.468 82.8893 671.253 84.2243 669.067 86.1853C666.844 88.1786 665.752 90.7587 665.752 93.9055H667.54C667.54 91.2254 668.446 89.1439 670.261 87.5163C672.111 85.8564 674.973 84.6109 678.978 83.7936L678.621 82.0418ZM665.752 93.9055C665.752 97.1138 666.831 99.7607 669.031 101.586C671.204 103.389 674.35 104.289 678.3 104.289V102.501C674.592 102.501 671.911 101.653 670.172 100.21C668.459 98.7882 667.54 96.6904 667.54 93.9055H665.752ZM739.817 90.4093L739.788 89.5159L738.855 89.5466L738.926 90.4772L739.817 90.4093ZM765.123 89.5769L766.003 89.4216L765.868 88.658L765.093 88.6835L765.123 89.5769ZM778.774 83.4171L778.919 82.5351L778.919 82.5351L778.774 83.4171ZM821.893 57.9455L821.928 58.8387L822.897 58.8L822.78 57.8377L821.893 57.9455ZM796.92 58.9444L796.035 59.0637L796.143 59.8701L796.956 59.8376L796.92 58.9444ZM784.268 65.9366L784.136 66.8208L784.139 66.8212L784.268 65.9366ZM782.603 119.649C768.912 119.649 758.759 116.514 751.885 111.318C745.031 106.137 741.357 98.8474 740.709 90.3414L738.926 90.4772C739.61 99.4518 743.511 107.229 750.807 112.744C758.084 118.245 768.658 121.436 782.603 121.436V119.649ZM739.847 91.3028L765.152 90.4704L765.093 88.6835L739.788 89.5159L739.847 91.3028ZM764.242 89.7323C765.018 94.1294 766.807 97.6819 769.896 100.122C772.976 102.554 777.233 103.789 782.77 103.789V102.002C777.484 102.002 773.668 100.822 771.004 98.7186C768.349 96.6218 766.725 93.5151 766.003 89.4216L764.242 89.7323ZM782.77 103.789C787.251 103.789 790.978 103.075 793.613 101.498C796.31 99.8845 797.814 97.3913 797.814 94.0719H796.027C796.027 96.7459 794.867 98.6645 792.695 99.9641C790.461 101.301 787.111 102.002 782.77 102.002V103.789ZM797.814 94.0719C797.814 92.6218 797.618 91.2759 797.019 90.0487C796.415 88.8109 795.44 87.7681 794.005 86.8644C791.192 85.0925 786.488 83.7827 778.919 82.5351L778.629 84.2992C786.21 85.5488 790.579 86.8194 793.052 88.3772C794.26 89.1383 794.98 89.9476 795.412 90.8324C795.849 91.7278 796.027 92.7751 796.027 94.0719H797.814ZM778.919 82.5351C764.787 80.2074 755.782 77.2364 750.309 73.0316C744.927 68.8962 742.876 63.4942 742.876 55.9477H741.088C741.088 63.884 743.281 69.886 749.22 74.4492C755.068 78.943 764.459 81.9654 778.629 84.2992L778.919 82.5351ZM742.876 55.9477C742.876 47.627 746.053 40.7425 752.408 35.9116C758.794 31.0562 768.482 28.2069 781.604 28.2069V26.419C768.256 26.419 758.133 29.3133 751.326 34.4884C744.486 39.6879 741.088 47.1209 741.088 55.9477H742.876ZM781.604 28.2069C794.024 28.2069 803.338 31.3723 809.799 36.6419C816.253 41.9062 819.947 49.3403 821.005 58.0533L822.78 57.8377C821.674 48.7372 817.793 40.8551 810.929 35.2564C804.071 29.6631 794.323 26.419 781.604 26.419V28.2069ZM821.857 57.0523L796.885 58.0512L796.956 59.8376L821.928 58.8387L821.857 57.0523ZM797.806 58.8251C797.202 54.3375 795.464 50.6312 792.633 48.0457C789.798 45.4559 785.949 44.066 781.271 44.066V45.8539C785.584 45.8539 788.977 47.1277 791.427 49.3658C793.882 51.6084 795.473 54.8943 796.035 59.0637L797.806 58.8251ZM781.271 44.066C776.738 44.066 773.112 45.0908 770.597 46.9941C768.054 48.919 766.726 51.6854 766.726 54.9488H768.514C768.514 52.2189 769.6 49.991 771.676 48.4197C773.781 46.8269 776.981 45.8539 781.271 45.8539V44.066ZM766.726 54.9488C766.726 56.6704 767.013 58.2005 767.69 59.5485C768.37 60.9024 769.414 62.0142 770.836 62.94C773.636 64.7619 777.972 65.9045 784.136 66.8208L784.399 65.0524C778.244 64.1375 774.256 63.0325 771.812 61.4415C770.612 60.6609 769.804 59.7749 769.287 58.7461C768.768 57.7113 768.514 56.4737 768.514 54.9488H766.726ZM784.139 66.8212C798.426 68.8979 807.812 71.9123 813.618 76.2268C819.342 80.4801 821.665 86.0567 821.665 93.5725H823.453C823.453 85.6056 820.947 79.4452 814.684 74.7917C808.504 70.1995 798.744 67.1374 784.396 65.052L784.139 66.8212ZM821.665 93.5725C821.665 101.918 817.955 108.385 811.265 112.804C804.535 117.251 794.741 119.649 782.603 119.649V121.436C794.938 121.436 805.122 119.006 812.251 114.296C819.421 109.559 823.453 102.541 823.453 93.5725H821.665ZM832.611 90.4093L832.582 89.5159L831.649 89.5466L831.72 90.4772L832.611 90.4093ZM857.916 89.5769L858.797 89.4216L858.662 88.658L857.887 88.6835L857.916 89.5769ZM871.568 83.4171L871.713 82.5351L871.713 82.5351L871.568 83.4171ZM914.686 57.9455L914.722 58.8387L915.691 58.8L915.574 57.8377L914.686 57.9455ZM889.714 58.9444L888.828 59.0637L888.937 59.8701L889.75 59.8376L889.714 58.9444ZM877.062 65.9366L876.93 66.8208L876.933 66.8212L877.062 65.9366ZM875.397 119.649C861.706 119.649 851.553 116.514 844.679 111.318C837.825 106.137 834.151 98.8474 833.503 90.3414L831.72 90.4772C832.404 99.4518 836.305 107.229 843.601 112.744C850.878 118.245 861.452 121.436 875.397 121.436V119.649ZM832.641 91.3028L857.946 90.4704L857.887 88.6835L832.582 89.5159L832.641 91.3028ZM857.036 89.7323C857.812 94.1294 859.601 97.6819 862.69 100.122C865.77 102.554 870.027 103.789 875.563 103.789V102.002C870.278 102.002 866.461 100.822 863.798 98.7186C861.143 96.6218 859.519 93.5151 858.797 89.4216L857.036 89.7323ZM875.563 103.789C880.045 103.789 883.771 103.075 886.407 101.498C889.104 99.8845 890.608 97.3913 890.608 94.0719H888.82C888.82 96.7459 887.661 98.6645 885.489 99.9641C883.254 101.301 879.905 102.002 875.563 102.002V103.789ZM890.608 94.0719C890.608 92.6218 890.411 91.2759 889.813 90.0487C889.209 88.8109 888.233 87.7681 886.799 86.8644C883.986 85.0925 879.282 83.7827 871.713 82.5351L871.422 84.2992C879.003 85.5488 883.373 86.8194 885.846 88.3772C887.054 89.1383 887.774 89.9476 888.206 90.8324C888.643 91.7278 888.82 92.7751 888.82 94.0719H890.608ZM871.713 82.5351C857.581 80.2074 848.575 77.2364 843.103 73.0316C837.721 68.8962 835.669 63.4942 835.669 55.9477H833.882C833.882 63.884 836.075 69.886 842.014 74.4492C847.862 78.943 857.253 81.9654 871.422 84.2992L871.713 82.5351ZM835.669 55.9477C835.669 47.627 838.847 40.7425 845.201 35.9116C851.588 31.0562 861.276 28.2069 874.398 28.2069V26.419C861.049 26.419 850.926 29.3133 844.119 34.4884C837.28 39.6879 833.882 47.1209 833.882 55.9477H835.669ZM874.398 28.2069C886.818 28.2069 896.132 31.3723 902.593 36.6419C909.047 41.9062 912.74 49.3403 913.799 58.0533L915.574 57.8377C914.468 48.7372 910.587 40.8551 903.723 35.2564C896.865 29.6631 887.117 26.419 874.398 26.419V28.2069ZM914.651 57.0523L889.679 58.0512L889.75 59.8376L914.722 58.8387L914.651 57.0523ZM890.6 58.8251C889.996 54.3375 888.257 50.6312 885.427 48.0457C882.591 45.4559 878.742 44.066 874.065 44.066V45.8539C878.378 45.8539 881.771 47.1277 884.221 49.3658C886.676 51.6084 888.267 54.8943 888.828 59.0637L890.6 58.8251ZM874.065 44.066C869.532 44.066 865.906 45.0908 863.391 46.9941C860.847 48.919 859.52 51.6854 859.52 54.9488H861.307C861.307 52.2189 862.394 49.991 864.47 48.4197C866.575 46.8269 869.774 45.8539 874.065 45.8539V44.066ZM859.52 54.9488C859.52 56.6704 859.807 58.2005 860.484 59.5485C861.163 60.9024 862.208 62.0142 863.63 62.94C866.43 64.7619 870.766 65.9045 876.93 66.8208L877.193 65.0524C871.038 64.1375 867.05 63.0325 864.605 61.4415C863.406 60.6609 862.598 59.7749 862.081 58.7461C861.562 57.7113 861.307 56.4737 861.307 54.9488H859.52ZM876.933 66.8212C891.22 68.8979 900.605 71.9123 906.412 76.2268C912.136 80.4801 914.458 86.0567 914.458 93.5725H916.246C916.246 85.6056 913.741 79.4452 907.478 74.7917C901.298 70.1995 891.538 67.1374 877.19 65.052L876.933 66.8212ZM914.458 93.5725C914.458 101.918 910.748 108.385 904.059 112.804C897.328 117.251 887.534 119.649 875.397 119.649V121.436C887.732 121.436 897.916 119.006 905.045 114.296C912.215 109.559 916.246 102.541 916.246 93.5725H914.458ZM947.881 118.545L947.018 118.777L947.196 119.439H947.881V118.545ZM916.083 0.342987V-0.550941H914.917L915.22 0.575211L916.083 0.342987ZM942.387 0.342987L943.256 0.131084L943.089 -0.550941H942.387V0.342987ZM962.698 83.5836L961.83 83.7955L963.566 83.7988L962.698 83.5836ZM983.342 0.342987V-0.550941H982.642L982.474 0.127811L983.342 0.342987ZM1005.48 0.342987L1006.35 0.129444L1006.18 -0.550941H1005.48V0.342987ZM1025.96 83.5836L1025.09 83.7972L1026.83 83.7939L1025.96 83.5836ZM1046.11 0.342987V-0.550941H1045.4L1045.24 0.132725L1046.11 0.342987ZM1072.74 0.342987L1073.61 0.576344L1073.91 -0.550941H1072.74V0.342987ZM1040.78 118.545V119.439H1041.46L1041.64 118.778L1040.78 118.545ZM1013.64 118.545L1012.78 118.766L1012.95 119.439H1013.64V118.545ZM994.33 42.9622L995.196 42.7409H993.463L994.33 42.9622ZM975.018 118.545V119.439H975.712L975.884 118.766L975.018 118.545ZM948.745 118.312L916.947 0.110764L915.22 0.575211L947.018 118.777L948.745 118.312ZM916.083 1.23692H942.387V-0.550941H916.083V1.23692ZM941.519 0.55489L961.83 83.7955L963.567 83.3717L943.256 0.131084L941.519 0.55489ZM963.566 83.7988L984.209 0.558163L982.474 0.127811L961.83 83.3684L963.566 83.7988ZM983.342 1.23692H1005.48V-0.550941H983.342V1.23692ZM1004.62 0.556526L1025.09 83.7972L1026.83 83.3701L1006.35 0.129444L1004.62 0.556526ZM1026.83 83.7939L1046.97 0.553249L1045.24 0.132725L1025.09 83.3734L1026.83 83.7939ZM1046.11 1.23692H1072.74V-0.550941H1046.11V1.23692ZM1071.88 0.109631L1039.91 118.311L1041.64 118.778L1073.61 0.576344L1071.88 0.109631ZM1040.78 117.651H1013.64V119.439H1040.78V117.651ZM1014.51 118.323L995.196 42.7409L993.463 43.1835L1012.78 118.766L1014.51 118.323ZM993.463 42.7409L974.152 118.323L975.884 118.766L995.196 43.1835L993.463 42.7409ZM975.018 117.651H947.881V119.439H975.018V117.651ZM1158.63 80.587V81.4809H1159.52V80.587H1158.63ZM1096.03 80.587V79.693H1095.1L1095.14 80.6185L1096.03 80.587ZM1132.32 90.7423L1132.37 89.85L1131.7 89.8094L1131.48 90.4539L1132.32 90.7423ZM1157.46 92.2406L1158.32 92.4745L1158.61 91.4137L1157.51 91.3483L1157.46 92.2406ZM1133.15 65.2707V66.1646H1134.1L1134.05 65.2249L1133.15 65.2707ZM1096.03 65.2707L1095.14 65.1746L1095.03 66.1646H1096.03V65.2707ZM1115.17 119.649C1101.73 119.649 1090.74 115.104 1083.1 107.166C1075.47 99.2246 1071.12 87.8074 1071.12 73.9277H1069.33C1069.33 88.1833 1073.8 100.073 1081.82 108.405C1089.83 116.741 1101.31 121.436 1115.17 121.436V119.649ZM1071.12 73.9277C1071.12 60.048 1075.47 48.6302 1083.08 40.6883C1090.7 32.7502 1101.65 28.2069 1115.01 28.2069V26.419C1101.23 26.419 1089.79 31.1154 1081.79 39.4508C1073.8 47.7825 1069.33 59.6721 1069.33 73.9277H1071.12ZM1115.01 28.2069C1128.03 28.2069 1138.68 32.7041 1146.08 40.8178C1153.49 48.9402 1157.73 60.7764 1157.73 75.5925H1159.52C1159.52 60.442 1155.18 48.1384 1147.4 39.6127C1139.62 31.0783 1128.46 26.419 1115.01 26.419V28.2069ZM1157.73 75.5925V80.587H1159.52V75.5925H1157.73ZM1158.63 79.693H1096.03V81.4809H1158.63V79.693ZM1095.14 80.6185C1095.39 87.8395 1097.43 93.3242 1101.03 97.0063C1104.63 100.695 1109.67 102.458 1115.67 102.458V100.67C1110.02 100.67 1105.49 99.019 1102.31 95.7575C1099.12 92.4889 1097.17 87.4853 1096.92 80.5554L1095.14 80.6185ZM1115.67 102.458C1119.96 102.458 1123.67 101.558 1126.66 99.6538C1129.66 97.743 1131.86 94.8631 1133.17 91.0308L1131.48 90.4539C1130.28 93.9467 1128.32 96.4775 1125.7 98.146C1123.07 99.8212 1119.71 100.67 1115.67 100.67V102.458ZM1132.27 91.6347L1157.41 93.133L1157.51 91.3483L1132.37 89.85L1132.27 91.6347ZM1156.6 92.0068C1151.9 109.34 1136.35 119.649 1115.17 119.649V121.436C1136.95 121.436 1153.36 110.769 1158.32 92.4745L1156.6 92.0068ZM1134.05 65.2249C1133.71 58.5806 1131.7 53.4814 1128.34 50.0381C1124.98 46.5874 1120.36 44.8984 1115.01 44.8984V46.6863C1119.98 46.6863 1124.1 48.2437 1127.06 51.2858C1130.03 54.3353 1131.94 58.9752 1132.26 65.3165L1134.05 65.2249ZM1115.01 44.8984C1109.55 44.8984 1104.9 46.7682 1101.45 50.2856C1098.01 53.7923 1095.82 58.8675 1095.14 65.1746L1096.92 65.3668C1097.57 59.3542 1099.63 54.6903 1102.72 51.5378C1105.81 48.3959 1109.98 46.6863 1115.01 46.6863V44.8984ZM1096.03 66.1646H1133.15V64.3767H1096.03V66.1646ZM1173.69 0.342987V-0.550941H1172.8V0.342987H1173.69ZM1198.66 0.342987H1199.56V-0.550941H1198.66V0.342987ZM1211.82 99.8988H1212.71V99.0049H1211.82V99.8988ZM1211.82 118.545V119.439H1212.71V118.545H1211.82ZM1197 117.651C1189.88 117.651 1184.31 115.973 1180.52 112.42C1176.75 108.876 1174.58 103.324 1174.58 95.2373H1172.8C1172.8 103.632 1175.05 109.733 1179.3 113.724C1183.55 117.704 1189.63 119.439 1197 119.439V117.651ZM1174.58 95.2373V0.342987H1172.8V95.2373H1174.58ZM1173.69 1.23692H1198.66V-0.550941H1173.69V1.23692ZM1197.77 0.342987V92.5736H1199.56V0.342987H1197.77ZM1197.77 92.5736C1197.77 95.3593 1198.42 97.4747 1199.87 98.8771C1201.32 100.274 1203.39 100.793 1205.82 100.793V99.0049C1203.6 99.0049 1202.08 98.5249 1201.12 97.5909C1200.15 96.6625 1199.56 95.1153 1199.56 92.5736H1197.77ZM1205.82 100.793H1211.82V99.0049H1205.82V100.793ZM1210.92 99.8988V118.545H1212.71V99.8988H1210.92ZM1211.82 117.651H1197V119.439H1211.82V117.651ZM1225.03 0.342987V-0.550941H1224.13V0.342987H1225.03ZM1250 0.342987H1250.89V-0.550941H1250V0.342987ZM1263.15 99.8988H1264.05V99.0049H1263.15V99.8988ZM1263.15 118.545V119.439H1264.05V118.545H1263.15ZM1248.33 117.651C1241.22 117.651 1235.65 115.973 1231.86 112.42C1228.08 108.876 1225.92 103.324 1225.92 95.2373H1224.13C1224.13 103.632 1226.38 109.733 1230.64 113.724C1234.88 117.704 1240.97 119.439 1248.33 119.439V117.651ZM1225.92 95.2373V0.342987H1224.13V95.2373H1225.92ZM1225.03 1.23692H1250V-0.550941H1225.03V1.23692ZM1249.11 0.342987V92.5736H1250.89V0.342987H1249.11ZM1249.11 92.5736C1249.11 95.3593 1249.76 97.4747 1251.21 98.8771C1252.66 100.274 1254.72 100.793 1257.16 100.793V99.0049C1254.93 99.0049 1253.42 98.5249 1252.45 97.5909C1251.49 96.6625 1250.89 95.1153 1250.89 92.5736H1249.11ZM1257.16 100.793H1263.15V99.0049H1257.16V100.793ZM1262.26 99.8988V118.545H1264.05V99.8988H1262.26ZM1263.15 117.651H1248.33V119.439H1263.15V117.651Z" fill="url(#paint1_linear_198_10)" mask="url(#path-1-outside-1_198_10)"/>
<defs>
<linearGradient id="paint0_linear_198_10" x1="779.5" y1="-267" x2="773.488" y2="103" gradientUnits="userSpaceOnUse">
<stop stop-color="#B8A5C4"/>
<stop offset="1" stop-color="#030A04"/>
</linearGradient>
<linearGradient id="paint1_linear_198_10" x1="717.5" y1="-42" x2="720" y2="119" gradientUnits="userSpaceOnUse">
<stop stop-color="#B9A6C5"/>
<stop offset="1" stop-color="#030A04"/>
</linearGradient>
</defs>
</svg>
