<svg width="56" height="53" viewBox="0 0 56 53" fill="none" xmlns="http://www.w3.org/2000/svg">
<rect x="0.411765" y="0.411765" width="55.1765" height="51.8824" rx="12.7647" fill="#FCD3C5" stroke="#F86737" stroke-width="0.823529"/>
<g clip-path="url(#clip0_518_1010)">
<path d="M43.6786 36.7983H29.4066C28.9725 36.7983 28.6227 36.4485 28.6227 36.0144V26.6683C28.6227 26.2342 28.9725 25.8843 29.4066 25.8843H36.0485C36.194 25.8843 36.3089 25.7669 36.3089 25.6239V24.8654C36.3089 23.3946 35.1037 22.1842 33.6328 22.174L29.399 22.1433C28.9674 22.1408 28.6201 21.7909 28.6201 21.3594V16.0479C28.6201 15.6828 28.8729 15.3636 29.2279 15.2819C30.1242 15.0776 31.0588 14.9678 32.0164 14.9678C33.998 14.9678 35.8748 15.4325 37.5372 16.2599C39.8967 17.432 41.8323 19.3267 43.0504 21.6582C43.8471 23.1826 44.34 24.891 44.4395 26.7091C44.4498 26.9007 44.4574 33.6778 44.46 36.0169C44.46 36.451 44.1101 36.8009 43.676 36.8009L43.6786 36.7983Z" fill="#F86737"/>
<path d="M27.3182 15.693V25.1004C27.3182 25.5345 26.9684 25.8843 26.5343 25.8843L21.8076 25.9303C20.2142 25.9456 18.9323 27.2428 18.9323 28.8363V36.0757C18.9323 36.5098 18.5825 36.8596 18.1483 36.8596H12.4258C11.9917 36.8596 11.6418 36.5098 11.6418 36.0757C11.6418 36.0757 11.6393 24.1249 11.6367 23.8415C11.8665 18.8697 15.8246 14.9091 20.8526 14.9091H26.5369C26.971 14.9091 27.3208 15.2615 27.3208 15.693H27.3182Z" fill="#F86737"/>
<path d="M35.7116 35.0517C35.7116 33.1033 34.1334 31.5252 32.1851 31.5252C34.1334 31.5252 35.7116 29.9471 35.7116 27.9987C35.7116 29.9471 37.2897 31.5252 39.238 31.5252C37.2897 31.5252 35.7116 33.1033 35.7116 35.0517Z" fill="#FFF363"/>
</g>
<defs>
<clipPath id="clip0_518_1010">
<rect width="32.9412" height="22.9822" fill="white" transform="translate(11.5293 13.9233)"/>
</clipPath>
</defs>
</svg>
