<svg width="123" height="27" viewBox="0 0 123 27" fill="none" xmlns="http://www.w3.org/2000/svg">
<rect x="0.149314" y="0.353782" width="27.6831" height="26.0371" rx="13.0186" fill="#08180A" stroke="url(#paint0_linear_198_565)" stroke-width="0.298628"/>
<g clip-path="url(#clip0_198_565)">
<path d="M6.54883 13.0759C11.8489 12.2567 13.0867 10.7625 14.0197 5.59119C14.8574 10.9492 16.2734 12.1407 21.4751 13.136C16.1809 13.9408 14.8989 15.4482 13.9819 20.6329C13.0505 15.1397 11.8021 14.1652 6.54883 13.0759Z" fill="#B9A7C3"/>
<path d="M21.0042 19.7475C23.174 17.391 24.1605 14.7694 23.2075 13.8918C22.2544 13.0142 19.7228 14.213 17.5529 16.5694C15.3831 18.9259 14.3966 21.5475 15.3496 22.4251C16.3027 23.3027 18.8343 22.1039 21.0042 19.7475Z" fill="#B9A7C3"/>
<path d="M23.284 12.1212C24.1616 11.1681 22.9627 8.63652 20.6063 6.46665C18.2499 4.29677 15.6282 3.31032 14.7506 4.26334C13.873 5.21637 15.0719 7.74799 17.4283 9.91786C19.7847 12.0877 22.4064 13.0742 23.284 12.1212Z" fill="#B9A7C3"/>
<path d="M12.7192 22.4275C13.6722 21.5499 12.6858 18.9282 10.5159 16.5718C8.346 14.2154 5.81438 13.0166 4.86135 13.8942C3.90832 14.7717 4.89478 17.3934 7.06465 19.7498C9.23453 22.1063 11.7661 23.3051 12.7192 22.4275Z" fill="#B9A7C3"/>
<path d="M10.6415 9.91971C12.9979 7.74983 14.1967 5.21822 13.3191 4.26519C12.4416 3.31216 9.81988 4.29861 7.46345 6.46849C5.10703 8.63837 3.9082 11.17 4.78578 12.123C5.66336 13.076 8.28504 12.0896 10.6415 9.91971Z" fill="#B9A7C3"/>
</g>
<path d="M36.3689 17.8723V9.06776H41.788V9.88621H37.2121V13.0608H41.6392V13.8669H37.2121V17.0539H41.8872V17.8723H36.3689ZM43.4593 17.8723V11.2999H44.2033L44.2281 12.5772C44.5382 11.6099 45.3566 11.1511 46.3239 11.1511C47.8244 11.1511 48.5312 12.2548 48.5312 13.6436V17.8723H47.7128V13.9413C47.7128 12.664 47.2663 11.8827 46.1503 11.8827C45.0218 11.8827 44.2777 12.664 44.2777 13.9413V17.8723H43.4593ZM52.7554 18.0211C50.9077 18.0211 49.8164 16.595 49.8164 14.5861C49.8164 12.5772 50.9077 11.1511 52.7554 11.1511C54.2559 11.1511 55.2356 12.0191 55.496 13.408L54.6403 13.4576C54.4419 12.4904 53.7599 11.9323 52.7554 11.9323C51.4533 11.9323 50.6721 12.9368 50.6721 14.5861C50.6721 16.2354 51.4533 17.2399 52.7554 17.2399C53.7599 17.2399 54.4667 16.657 54.6527 15.5782L55.5084 15.6402C55.2604 17.0663 54.2559 18.0211 52.7554 18.0211ZM59.3525 18.0211C57.5668 18.0211 56.4135 16.6818 56.4135 14.5861C56.4135 12.4904 57.5668 11.1511 59.3525 11.1511C61.1258 11.1511 62.2791 12.4904 62.2791 14.5861C62.2791 16.6818 61.1258 18.0211 59.3525 18.0211ZM59.3525 17.2399C60.6422 17.2399 61.4235 16.2354 61.4235 14.5861C61.4235 12.9368 60.6422 11.9323 59.3525 11.9323C58.0504 11.9323 57.2692 12.9368 57.2692 14.5861C57.2692 16.2354 58.0504 17.2399 59.3525 17.2399ZM63.735 17.8723V11.2999H64.4791L64.5039 12.5524C64.7891 11.7091 65.5332 11.1511 66.4508 11.1511C67.3933 11.1511 68.0877 11.7091 68.3481 12.664C68.6209 11.7091 69.365 11.1511 70.3571 11.1511C71.6715 11.1511 72.4528 12.106 72.4528 13.6561V17.8723H71.6343V13.9041C71.6343 12.602 71.1135 11.8827 70.171 11.8827C69.179 11.8827 68.4845 12.726 68.4845 13.9785V17.8723H67.6661V13.9413C67.6661 12.664 67.2197 11.8827 66.2524 11.8827C65.2479 11.8827 64.5535 12.7136 64.5535 13.9413V17.8723H63.735ZM74.1226 19.7324V11.2999H74.8667L74.8791 12.54C75.2759 11.6347 76.0571 11.1511 77.0244 11.1511C78.8845 11.1511 79.8146 12.6764 79.8146 14.5861C79.8146 16.4958 78.8845 18.0211 77.0244 18.0211C76.0943 18.0211 75.2883 17.5003 74.9411 16.7686V19.7324H74.1226ZM76.9624 17.2399C78.1901 17.2399 78.9465 16.2354 78.9465 14.5861C78.9465 12.9368 78.1901 11.9323 76.95 11.9323C75.7347 11.9323 74.9411 12.9368 74.9411 14.5861C74.9411 16.2354 75.7347 17.2399 76.9624 17.2399ZM83.0619 18.0211C81.7351 18.0211 80.8794 17.3515 80.8794 16.2478C80.8794 15.1689 81.5738 14.5613 82.9255 14.3009L85.3561 13.8421C85.3561 12.54 84.798 11.9323 83.6572 11.9323C82.6403 11.9323 82.0575 12.4284 81.8591 13.3088L80.991 13.2344C81.2266 11.9695 82.1939 11.1511 83.6572 11.1511C85.2817 11.1511 86.1745 12.1184 86.1745 13.8297V16.5702C86.1745 17.0043 86.3109 17.1407 86.621 17.1407H86.8194V17.8723C86.745 17.8847 86.621 17.8971 86.4846 17.8971C85.7777 17.8971 85.4181 17.5995 85.3685 16.7314C85.0337 17.4755 84.116 18.0211 83.0619 18.0211ZM83.1363 17.2895C84.488 17.2895 85.3561 16.3966 85.3561 15.2309V14.5737L83.0991 14.9953C82.1567 15.1689 81.7351 15.541 81.7351 16.1734C81.7351 16.8927 82.2559 17.2895 83.1363 17.2895ZM90.3996 18.0211C88.6883 18.0211 87.7086 17.1035 87.6218 15.851L88.4775 15.789C88.5767 16.657 89.2091 17.2399 90.3996 17.2399C91.4413 17.2399 92.0489 16.8927 92.0489 16.1734C92.0489 15.5782 91.7885 15.293 90.2012 15.0201C88.3287 14.6853 87.8078 14.1397 87.8078 13.1228C87.8078 11.9571 88.7007 11.1511 90.2012 11.1511C91.7389 11.1511 92.5697 12.0936 92.7682 13.2096L91.9125 13.284C91.7761 12.5276 91.2057 11.9323 90.1888 11.9323C89.1967 11.9323 88.6635 12.3912 88.6635 13.0856C88.6635 13.8049 89.0727 14.0777 90.3872 14.3009C92.3465 14.6233 92.917 15.1441 92.917 16.161C92.917 17.3515 91.8753 18.0211 90.3996 18.0211ZM96.7303 18.0211C95.019 18.0211 94.0393 17.1035 93.9525 15.851L94.8082 15.789C94.9074 16.657 95.5398 17.2399 96.7303 17.2399C97.772 17.2399 98.3796 16.8927 98.3796 16.1734C98.3796 15.5782 98.1192 15.293 96.5319 15.0201C94.6594 14.6853 94.1385 14.1397 94.1385 13.1228C94.1385 11.9571 95.0314 11.1511 96.5319 11.1511C98.0696 11.1511 98.9004 12.0936 99.0989 13.2096L98.2432 13.284C98.1068 12.5276 97.5364 11.9323 96.5195 11.9323C95.5274 11.9323 94.9942 12.3912 94.9942 13.0856C94.9942 13.8049 95.4034 14.0777 96.7179 14.3009C98.6772 14.6233 99.2477 15.1441 99.2477 16.161C99.2477 17.3515 98.206 18.0211 96.7303 18.0211ZM101.748 17.8723L99.3795 9.06776H100.297L102.281 16.7562L104.191 9.06776H105.183L107.093 16.7562L109.077 9.06776H109.995L107.626 17.8723H106.535L104.687 10.5311L102.827 17.8723H101.748ZM113.09 18.0211C111.217 18.0211 110.126 16.595 110.126 14.5861C110.126 12.5772 111.205 11.1511 113.04 11.1511C114.801 11.1511 115.892 12.5028 115.892 14.5613V14.8217H110.981C111.044 16.3842 111.837 17.2399 113.09 17.2399C114.044 17.2399 114.665 16.7314 114.9 15.975L115.781 16.037C115.446 17.2027 114.454 18.0211 113.09 18.0211ZM114.999 14.0901C114.913 12.6888 114.181 11.9323 113.04 11.9323C111.899 11.9323 111.13 12.7136 110.981 14.0901H114.999ZM118.541 17.8723C117.81 17.8723 117.338 17.5127 117.338 16.719V9.06776H118.157V16.657C118.157 16.9795 118.33 17.1407 118.665 17.1407H119.174V17.8723H118.541ZM121.663 17.8723C120.931 17.8723 120.46 17.5127 120.46 16.719V9.06776H121.278V16.657C121.278 16.9795 121.452 17.1407 121.787 17.1407H122.295V17.8723H121.663Z" fill="white"/>
<defs>
<linearGradient id="paint0_linear_198_565" x1="24.8955" y1="24.8942" x2="1.54329" y2="-0.592338" gradientUnits="userSpaceOnUse">
<stop offset="0.085" stop-color="#121212"/>
<stop offset="0.495" stop-color="#B9A7C3"/>
<stop offset="0.93"/>
</linearGradient>
<clipPath id="clip0_198_565">
<rect width="19.0731" height="18.8135" fill="white" transform="translate(4.49854 3.90082)"/>
</clipPath>
</defs>
</svg>
