<svg width="59" height="20" viewBox="0 0 59 20" fill="none" xmlns="http://www.w3.org/2000/svg">
<g clip-path="url(#clip0_198_177)">
<path d="M58.4461 19.0564H48.3614C48.0547 19.0564 47.8075 18.8092 47.8075 18.5024V11.8984C47.8075 11.5917 48.0547 11.3445 48.3614 11.3445H53.0546C53.1575 11.3445 53.2387 11.2615 53.2387 11.1604V10.6245C53.2387 9.58519 52.387 8.72992 51.3477 8.7227L48.356 8.70105C48.0511 8.69924 47.8057 8.45204 47.8057 8.1471V4.39399C47.8057 4.13596 47.9843 3.91042 48.2351 3.85268C48.8684 3.70833 49.5289 3.63074 50.2055 3.63074C51.6057 3.63074 52.9319 3.95913 54.1066 4.54375C55.7738 5.37196 57.1415 6.71081 58.0022 8.35821C58.5652 9.43543 58.9134 10.6426 58.9838 11.9273C58.991 12.0626 58.9964 16.8514 58.9982 18.5042C58.9982 18.811 58.751 19.0582 58.4443 19.0582L58.4461 19.0564Z" fill="white"/>
<path d="M46.8854 4.14306V10.7904C46.8854 11.0971 46.6382 11.3443 46.3314 11.3443L42.9915 11.3768C41.8656 11.3876 40.9598 12.3043 40.9598 13.4302V18.5456C40.9598 18.8524 40.7126 19.0996 40.4059 19.0996H36.3622C36.0555 19.0996 35.8083 18.8524 35.8083 18.5456C35.8083 18.5456 35.8065 10.1011 35.8047 9.90083C35.9671 6.38771 38.7639 3.58911 42.3167 3.58911H46.3332C46.64 3.58911 46.8872 3.83812 46.8872 4.14306H46.8854Z" fill="white"/>
<path d="M8.51381 0.0382836L10.4102 1.33744C10.4986 1.39879 10.5185 1.51968 10.4517 1.60449C10.255 1.84988 9.86709 2.32804 9.6235 2.57344C8.99918 3.20136 8.28645 3.73907 7.50696 4.16671L7.13165 4.37241C7.07211 4.40488 6.99993 4.40128 6.9458 4.36338L5.07646 3.08227C4.96459 3.00649 4.97542 2.83868 5.09451 2.77733C6.12841 2.24324 7.04865 1.51788 7.8119 0.644555C7.9328 0.505618 8.13849 0.240374 8.263 0.0779799C8.32254 0.000391581 8.43261 -0.0176522 8.51381 0.0382836Z" fill="white"/>
<path d="M3.8419 3.65771H0.736562C0.430627 3.65771 0.182617 3.90572 0.182617 4.21166V18.5258C0.182617 18.8317 0.430627 19.0798 0.736562 19.0798H3.8419C4.14784 19.0798 4.39584 18.8317 4.39584 18.5258V4.21166C4.39584 3.90572 4.14784 3.65771 3.8419 3.65771Z" fill="white"/>
<path d="M20.2418 14.309C20.1011 16.5844 18.8146 19.1863 14.4372 19.1736C11.2037 19.1646 8.98973 16.8334 8.98973 13.8038V8.94823H7.11498C6.80824 8.94823 6.56104 8.70103 6.56104 8.39428V7.10776C6.56104 6.80101 6.80824 6.55381 7.11498 6.55381H9.10521V4.42284C9.10521 4.1161 9.35241 3.8689 9.65916 3.8689H12.7086C13.0153 3.8689 13.2625 4.1161 13.2625 4.42284V6.55381H16.1188C16.4256 6.55381 16.6728 6.80101 16.6728 7.10776V8.39428C16.6728 8.70103 16.4256 8.94823 16.1188 8.94823H13.2625V13.3996C13.3239 15.4133 14.466 14.9803 14.5021 13.968C14.5292 13.1596 14.5472 12.4559 14.5472 12.4505V12.4126C14.5599 12.1167 14.7998 11.8821 15.0958 11.8785L19.6825 11.8425C19.9856 11.8388 20.2346 12.0788 20.2437 12.3802V12.4199C20.2437 12.474 20.2779 13.7352 20.2437 14.309H20.2418Z" fill="white"/>
<path d="M33.5653 3.78955C33.872 3.78955 34.1192 4.03675 34.1192 4.3435V13.3167C34.1192 16.8749 31.6129 19.1719 27.7335 19.1719C23.8541 19.1719 21.3496 16.8749 21.3496 13.3167V4.3435C21.3496 4.03675 21.5968 3.78955 21.9036 3.78955H24.953C25.2597 3.78955 25.5069 4.03675 25.5069 4.3435V12.9883C25.5069 14.4823 25.9201 15.1788 26.9558 15.177C27.9915 15.1752 28.2351 14.4823 28.2351 12.9883V4.3435C28.2351 4.03675 28.4823 3.78955 28.7891 3.78955H33.5653Z" fill="white"/>
<path d="M52.8161 17.8222C52.8161 16.4455 51.701 15.3303 50.3242 15.3303C51.701 15.3303 52.8161 14.2152 52.8161 12.8385C52.8161 14.2152 53.9312 15.3303 55.3079 15.3303C53.9312 15.3303 52.8161 16.4455 52.8161 17.8222Z" fill="#F88965"/>
</g>
<defs>
<clipPath id="clip0_198_177">
<rect width="58.8174" height="19.1661" fill="white" transform="translate(0.182617 0.0057373)"/>
</clipPath>
</defs>
</svg>
