<svg width="208" height="208" viewBox="0 0 208 208" fill="none" xmlns="http://www.w3.org/2000/svg">
<path d="M141.254 80.28C141.254 80.28 141.135 80.4777 141.056 80.5765L141.432 80.3986L141.254 80.28Z" fill="#B5AFB9" stroke="#7B5894" stroke-width="0.986193" stroke-linecap="round" stroke-linejoin="round"/>
<path d="M118.491 189.491V203.1L23.7183 148.366V39.6287L35.5526 46.4531V141.601L118.491 189.491Z" fill="#B5AFB9" stroke="#7B5894" stroke-width="0.986193" stroke-linecap="round" stroke-linejoin="round"/>
<path d="M141.451 80.4179H141.431L141.057 80.5757C141.136 80.4771 141.214 80.3785 141.254 80.2996L119.262 67.5974L110.09 62.3114L86.8554 48.8795L75.0014 42.0353L63.1671 35.1911L60.8002 33.8499L48.9462 26.986L47.4077 26.0984V134.856L48.1769 135.29L131.116 183.179L142.181 189.57V80.8124L141.451 80.4179ZM99.1631 142.213C97.9403 142.943 96.4807 142.805 94.8042 141.838C93.1276 140.852 91.6681 139.294 90.4255 137.163C89.2026 135.053 88.5714 133.021 88.5714 131.108C88.5714 130.615 88.6109 130.181 88.6898 129.787C88.9067 128.564 89.4984 127.676 90.4255 127.163C91.6681 126.434 93.1276 126.572 94.8042 127.538C96.4807 128.524 97.9403 130.063 99.1631 132.213C100.09 133.81 100.682 135.349 100.899 136.828C100.978 137.321 101.017 137.795 101.017 138.268C101.017 140.221 100.406 141.522 99.1631 142.213ZM110.189 107.459C110.189 107.459 110.11 107.578 110.051 107.637V107.676C109.025 109.156 107.092 110.655 104.272 112.292C102.102 113.515 100.721 114.737 100.13 115.941C99.5576 117.065 99.2618 119.195 99.242 122.292V122.627L90.3466 117.499V117.163C90.3663 112.134 90.7411 108.919 91.4708 107.538C92.2006 106.079 94.2125 104.659 97.4669 103.258C99.4393 102.252 100.82 101.266 101.609 100.3C102.398 99.3331 102.792 98.0708 102.792 96.4732C102.792 93.8696 102.063 91.4041 100.564 88.9978C99.0842 86.6112 97.171 84.7572 94.8042 83.3765C92.8318 82.2325 91.0764 81.9169 89.5379 82.4495C88.4925 82.8242 87.5852 83.5935 86.8554 84.8164C86.5004 85.3686 86.1848 85.9998 85.9087 86.7296L77.9205 78.3666C79.104 74.7769 81.1947 72.5284 84.2124 71.6605C85.0409 71.4238 85.9284 71.3055 86.8554 71.3055C88.0586 71.3055 89.3407 71.5422 90.7016 71.9761H90.7213C92.0034 72.41 93.3841 73.0412 94.8042 73.8499C96.5793 74.8952 98.2361 76.0392 99.7746 77.3607C102.595 79.7079 105.001 82.5087 107.013 85.7434C110.13 90.7927 111.688 95.842 111.688 100.931C111.688 103.751 111.195 105.96 110.189 107.459Z" fill="#B5AFB9" stroke="#7B5894" stroke-width="0.986193" stroke-linecap="round" stroke-linejoin="round"/>
<path d="M101.017 138.268C101.017 140.201 100.405 141.523 99.1625 142.213C97.9396 142.923 96.4801 142.785 94.8035 141.818C93.127 140.852 91.6674 139.294 90.4248 137.164C89.202 135.053 88.5708 133.022 88.5708 131.089C88.5708 130.615 88.6102 130.181 88.6891 129.787C88.9061 128.564 89.4978 127.676 90.4248 127.144C91.6674 126.434 93.127 126.572 94.8035 127.538C96.4801 128.505 97.9396 130.063 99.1625 132.193C100.09 133.791 100.681 135.349 100.898 136.828C100.977 137.321 101.017 137.795 101.017 138.268Z" fill="#B5AFB9" stroke="#7B5894" stroke-width="0.986193" stroke-linecap="round" stroke-linejoin="round"/>
<path d="M90.7015 71.9757L86.8553 73.9089L77.9204 78.3665C79.1038 74.757 81.1946 72.5083 84.2123 71.6404C85.0407 71.4037 85.9283 71.2854 86.8553 71.2854C88.0585 71.2854 89.3405 71.5221 90.7015 71.9757Z" fill="#B5AFB9" stroke="#7B5894" stroke-width="0.986193" stroke-linecap="round" stroke-linejoin="round"/>
<path d="M99.7745 77.3407L89.5378 82.4492C88.4924 82.8239 87.5851 83.5929 86.8553 84.8158C86.5003 85.3681 86.1847 85.9995 85.9086 86.7292L77.9204 78.3663L86.8553 73.9087L90.7015 71.9756H90.7212C92.0033 72.3898 93.3839 73.021 94.804 73.8494C96.5792 74.875 98.236 76.0389 99.7745 77.3407Z" fill="#B5AFB9" stroke="#7B5894" stroke-width="0.986193" stroke-linecap="round" stroke-linejoin="round"/>
<path d="M111.688 100.93C111.688 103.751 111.195 105.94 110.189 107.459C110.149 107.518 110.11 107.577 110.051 107.636L90.7016 117.341L90.3663 117.498V117.143C90.3663 112.133 90.7608 108.918 91.4906 107.518C92.2203 106.078 94.2322 104.658 97.4866 103.258C99.459 102.232 100.84 101.246 101.629 100.299C102.418 99.3327 102.812 98.0704 102.812 96.4727C102.812 93.8692 102.082 91.384 100.583 88.9974C99.104 86.6108 97.1907 84.737 94.8239 83.3564C92.8515 82.2321 91.0961 81.9165 89.5576 82.4491L99.7943 77.3406C102.615 79.6877 105.021 82.4885 107.033 85.7429C110.149 90.7725 111.708 95.8218 111.708 100.93H111.688Z" fill="#B5AFB9" stroke="#7B5894" stroke-width="0.986193" stroke-linecap="round" stroke-linejoin="round"/>
<path d="M110.03 107.656C109.024 109.136 107.091 110.654 104.271 112.291C102.101 113.514 100.72 114.737 100.129 115.921C99.5568 117.065 99.2609 119.195 99.2412 122.291V122.627L90.3457 117.498L90.681 117.341L110.03 107.656Z" fill="#B5AFB9" stroke="#7B5894" stroke-width="0.986193" stroke-linecap="round" stroke-linejoin="round"/>
<path d="M181.628 61.0884V169.846L157.939 181.7L156.401 182.469L142.18 189.57V80.8122L141.45 80.398L150.582 75.9996L181.628 61.0884Z" fill="#B5AFB9" stroke="#7B5894" stroke-width="0.986193" stroke-linecap="round" stroke-linejoin="round"/>
<path d="M181.629 61.089L150.583 76.0002L141.451 80.3986H141.431L141.254 80.2803L119.262 67.5781L110.09 62.2921L86.8554 48.8799L75.0014 42.0357L63.1671 35.1915L60.8002 33.8306L48.9462 26.9864L47.4077 26.0988L86.8554 6.375L181.629 61.089Z" fill="#B5AFB9" stroke="#7B5894" stroke-width="0.986193" stroke-linecap="round" stroke-linejoin="round"/>
<path d="M157.94 181.699V183.376L118.492 203.1V189.49L131.115 183.179L142.181 189.569L156.401 182.488L157.94 181.699Z" fill="#B5AFB9" stroke="#7B5894" stroke-width="0.986193" stroke-linecap="round" stroke-linejoin="round"/>
<path d="M131.115 183.179L118.492 189.491L35.5527 141.601L48.176 135.29L131.115 183.179Z" fill="#B5AFB9" stroke="#7B5894" stroke-width="0.986193" stroke-linecap="round" stroke-linejoin="round"/>
<path d="M48.176 135.29L35.5527 141.601V46.4533L47.4068 40.5361V134.856L48.176 135.29Z" fill="#B5AFB9" stroke="#7B5894" stroke-width="0.986193" stroke-linecap="round" stroke-linejoin="round"/>
<path d="M47.4066 27.874V40.5367L35.5526 46.4539L23.7183 39.6294L47.4066 27.874Z" fill="#B5AFB9" stroke="#7B5894" stroke-width="0.986193" stroke-linecap="round" stroke-linejoin="round"/>
</svg>
