<svg width="209" height="208" viewBox="0 0 209 208" fill="none" xmlns="http://www.w3.org/2000/svg">
<rect width="207.101" height="207.101" transform="translate(0.949219 0.595947)" fill="#CFCAD1"/>
<path d="M90.9542 83.8948C90.9542 92.9184 88.1649 99.0258 82.5647 102.217C76.9645 105.408 70.223 104.732 62.3616 100.188C56.846 97.0182 51.9009 92.5803 47.5053 86.8745C45.8992 84.8035 44.3779 82.5845 42.9409 80.1754C42.6873 79.7528 42.4335 79.3301 42.1799 78.8863C36.5797 69.2287 33.769 59.888 33.769 50.8643C33.769 41.8407 36.5797 35.7333 42.1799 32.5423L43.5955 31.8238C48.8999 29.4992 55.1554 30.4079 62.3616 34.571C70.223 39.1146 76.9645 46.2151 82.5647 55.8728C87.4252 64.2625 90.1723 72.3986 90.8063 80.3022C90.9119 81.5068 90.9542 82.7113 90.9542 83.8948Z" fill="#C3BCC6" stroke="#8E8BAB" stroke-width="1.05664" stroke-linecap="round" stroke-linejoin="round"/>
<path d="M130.198 46.1519L127.069 47.7157C120.392 51.1181 115.088 56.5914 111.157 64.1781C108.769 68.7639 107.099 74.0048 106.169 79.9008C105.768 82.3945 105.514 84.9938 105.367 87.7199C105.324 88.7554 105.282 89.7909 105.282 90.8687L82.5644 102.217C88.1645 99.0259 90.9538 92.9186 90.9538 83.8949C90.9538 82.7115 90.9116 81.5069 90.8059 80.3024C90.1719 72.3987 87.4249 64.2626 82.5644 55.8729C76.9642 46.2153 70.2226 39.1147 62.3613 34.5711C55.155 30.408 48.8995 29.4993 43.5952 31.8239L84.2757 11.5153C84.2757 11.5153 84.3816 11.4519 84.445 11.4096C84.9733 11.1138 85.5016 10.839 86.051 10.6277C91.3131 8.38764 97.505 9.31748 104.627 13.4384C112.488 17.9819 119.23 25.0826 124.83 34.7402C127.07 38.6075 128.866 42.3903 130.198 46.1519Z" fill="#C3BCC6" stroke="#8E8BAB" stroke-width="1.05664" stroke-linecap="round" stroke-linejoin="round"/>
<path d="M180.408 134.296L169.335 140.615L160.417 145.074L130.894 159.846L130.662 159.698L138.143 155.429L160.227 144.398L168.997 140.023L169.018 140.002L180.408 134.296Z" fill="#C3BCC6" stroke="#8E8BAB" stroke-width="1.05664" stroke-linecap="round" stroke-linejoin="round"/>
<path d="M203.653 85.7753L180.598 97.3138L167.115 104.055L161.388 106.908L149.934 87.1701L163.607 80.3231L192.2 66.0374L203.653 85.7753Z" fill="#C3BCC6" stroke="#8E8BAB" stroke-width="1.05664" stroke-linecap="round" stroke-linejoin="round"/>
<path d="M180.029 133.662C180.156 133.874 180.283 134.085 180.409 134.296L169.019 140.002L160.249 144.398L138.165 155.429C132.924 146.807 128.825 137.804 125.845 128.422C122.865 119.039 121.365 110.057 121.365 101.435C121.365 100.442 121.386 99.4486 121.428 98.4976C121.724 91.5872 123.034 85.6701 125.422 80.725C125.549 80.408 125.697 80.1122 125.845 79.8163C127.578 76.4562 129.67 73.6455 132.143 71.3843C133.939 69.6937 135.946 68.3201 138.165 67.2423L147.992 62.3395L180.43 46.1096C175.19 48.6878 171.09 52.8721 168.111 58.6836C165.131 64.4739 163.63 71.6802 163.63 80.3024L149.957 87.1705C149.619 87.3184 149.281 87.4875 148.964 87.6777C145.625 89.4739 142.984 92.2001 141.018 95.856C138.884 99.8924 137.806 104.901 137.806 110.924C137.806 111.621 137.806 112.297 137.848 112.995C138.06 118.384 139.137 123.941 141.018 129.711C143.174 136.198 146.153 142.538 149.957 148.709L160.016 143.679L168.639 139.368L180.05 133.662H180.029Z" fill="#C3BCC6" stroke="#8E8BAB" stroke-width="1.05664" stroke-linecap="round" stroke-linejoin="round"/>
<path d="M119.567 175.864V198.836L5.17578 132.796V109.825C5.17578 105.323 6.19002 101.667 8.21877 98.8778C9.23314 97.483 10.4381 96.4266 11.8329 95.7292C13.2277 95.0318 14.8338 94.6935 16.6089 94.6935C22.6952 94.6512 29.542 95.6022 37.1709 97.5464C40.4465 98.3917 43.8698 99.5329 47.4412 100.991C52.1538 102.914 57.1413 105.387 62.3611 108.409C71.5327 113.692 79.9433 119.778 87.5722 126.646C94.5883 132.944 100.949 139.347 106.655 145.835C107.141 146.405 107.627 146.955 108.113 147.525C111.685 151.646 114.495 156.274 116.524 161.409C118.553 166.545 119.567 171.363 119.567 175.864Z" fill="#C3BCC6" stroke="#8E8BAB" stroke-width="1.05664" stroke-linecap="round" stroke-linejoin="round"/>
<path d="M156.19 131.297C157.501 134.995 159.233 138.63 161.389 142.18L159.804 143.089L149.935 148.71C146.131 142.539 143.151 136.199 140.996 129.712C139.115 123.942 138.037 118.384 137.826 112.996C137.805 112.298 137.784 111.622 137.784 110.925C137.784 104.902 138.861 99.8933 140.996 95.8569C142.961 92.201 145.603 89.4748 148.942 87.6786C149.259 87.4884 149.597 87.3193 149.935 87.1714L161.389 106.909C159.233 107.987 157.501 109.635 156.19 111.812C156.042 112.045 155.916 112.277 155.789 112.531C154.753 114.602 154.225 117.243 154.225 120.413C154.225 123.985 154.88 127.598 156.19 131.297Z" fill="#C3BCC6" stroke="#8E8BAB" stroke-width="1.05664" stroke-linecap="round" stroke-linejoin="round"/>
<path d="M203.653 121.046L192.2 127.576L180.027 133.663L168.616 139.368L159.993 143.68L149.934 148.709L159.803 143.088L161.388 142.179L168.256 138.756L179.668 133.029L191.819 126.964L203.653 121.046Z" fill="#C3BCC6" stroke="#8E8BAB" stroke-width="1.05664" stroke-linecap="round" stroke-linejoin="round"/>
<path d="M198.456 110.162C199.766 113.861 201.499 117.496 203.655 121.046L191.821 126.963L179.669 133.028L168.257 138.755L161.389 142.178C159.234 138.628 157.501 134.993 156.191 131.295C154.88 127.597 154.226 123.983 154.226 120.412C154.226 117.242 154.754 114.6 155.789 112.529C155.916 112.276 156.043 112.043 156.191 111.811C157.501 109.634 159.234 107.986 161.389 106.908L167.117 104.055L180.599 97.3139L203.655 85.7754C201.499 86.8532 199.766 88.5013 198.456 90.678C197.146 92.8546 196.491 95.7289 196.491 99.2792C196.491 102.829 197.146 106.464 198.456 110.162Z" fill="#C3BCC6" stroke="#8E8BAB" stroke-width="1.05664" stroke-linecap="round" stroke-linejoin="round"/>
<path d="M125.823 128.421C128.803 137.804 132.902 146.807 138.143 155.429L130.663 159.698L127.07 161.748C125.844 159.719 124.682 157.69 123.562 155.619C118.511 146.405 114.369 136.832 111.157 126.921C107.227 114.812 105.261 103.231 105.261 92.1365C105.261 91.7139 105.261 91.2912 105.282 90.8686C105.282 89.7908 105.325 88.7553 105.367 87.7198C105.515 84.9937 105.768 82.3944 106.17 79.9007C107.1 74.0047 108.769 68.7638 111.157 64.178C115.088 56.5913 120.392 51.1179 127.07 47.7156L132.966 58.1129L138.143 67.2422C135.924 68.32 133.917 69.6936 132.121 71.3842C129.648 73.6454 127.556 76.4561 125.823 79.8162C125.675 80.112 125.527 80.4079 125.401 80.7249C123.013 85.6699 121.702 91.5871 121.406 98.4975C121.364 99.4485 121.343 100.442 121.343 101.435C121.343 110.057 122.843 119.038 125.823 128.421Z" fill="#C3BCC6" stroke="#8E8BAB" stroke-width="1.05664" stroke-linecap="round" stroke-linejoin="round"/>
<path d="M180.408 46.1094L147.969 62.3182V62.3393L138.142 67.2421L132.965 58.1128L127.069 47.7155L130.197 46.1517L169.334 26.5828L180.408 46.1094Z" fill="#C3BCC6" stroke="#8E8BAB" stroke-width="1.05664" stroke-linecap="round" stroke-linejoin="round"/>
<path d="M161.834 154.732V177.703L119.568 198.836V175.864C119.568 171.363 118.553 166.545 116.525 161.41C114.496 156.274 111.685 151.646 108.114 147.525C107.628 146.955 107.142 146.405 106.656 145.835C100.95 139.347 94.5888 132.944 87.5727 126.646C79.9438 119.778 71.5332 113.692 62.3616 108.409C57.1418 105.387 52.1543 102.914 47.4417 100.991C43.8703 99.5331 40.4472 98.3919 37.1716 97.5466C29.5427 95.6024 22.6957 94.6514 16.6095 94.6937C14.8344 94.6937 13.2283 95.0318 11.8335 95.7292L42.9409 80.1755C44.3779 82.5847 45.8992 84.8036 47.5053 86.8746C51.9009 92.5804 56.846 97.0183 62.3616 100.188C70.223 104.732 76.9645 105.408 82.5647 102.217L105.282 90.8687C105.261 91.2913 105.261 91.714 105.261 92.1367C105.261 103.231 107.227 114.812 111.157 126.921C114.369 136.832 118.511 146.405 123.562 155.619C124.682 157.69 125.844 159.719 127.07 161.748L130.895 159.846L160.417 145.074C161.368 148.455 161.834 151.668 161.834 154.732Z" fill="#C3BCC6" stroke="#8E8BAB" stroke-width="1.05664" stroke-linecap="round" stroke-linejoin="round"/>
<path d="M11.8344 95.7292L11.5801 95.8563L11.8344 95.7292Z" fill="#C3BCC6"/>
<path d="M11.8344 95.7292L11.5801 95.8563" stroke="#8E8BAB" stroke-width="1.05664" stroke-linecap="round" stroke-linejoin="round"/>
</svg>
