<svg width="35" height="36" viewBox="0 0 35 36" fill="none" xmlns="http://www.w3.org/2000/svg">
<circle cx="17.4521" cy="18.0624" r="17.0222" fill="#061609" stroke="#B9A7C3" stroke-width="0.27091"/>
<mask id="mask0_216_11367" style="mask-type:alpha" maskUnits="userSpaceOnUse" x="1" y="1" width="33" height="34">
<circle cx="17.452" cy="18.0623" r="16.0853" fill="#D9D9D9"/>
</mask>
<g mask="url(#mask0_216_11367)">
<path d="M-10.5571 28.7152C1.07394 26.9176 3.79026 23.6386 5.83772 12.29C6.72852 20.207 15.8435 28.7152 22.1987 28.8471C10.5805 30.6133 7.76728 33.9214 5.75484 45.2992C3.71088 33.2444 0.971212 31.1059 -10.5571 28.7152Z" fill="#B9A7C3"/>
<path d="M26.1672 26.6202C28.0931 24.5287 25.4623 18.9731 20.2911 14.2113C15.1199 9.44944 9.36656 7.28466 7.4407 9.37609C5.51483 11.4675 8.14569 17.0232 13.3169 21.785C18.4881 26.5468 24.2414 28.7116 26.1672 26.6202Z" fill="#B9A7C3"/>
</g>
</svg>
