<svg width="220" height="207" viewBox="0 0 220 207" fill="none" xmlns="http://www.w3.org/2000/svg">
<rect x="1.17361" y="1.17361" width="217.59" height="204.653" rx="102.326" fill="black" stroke="url(#paint0_linear_198_348)" stroke-width="2.34723"/>
<g clip-path="url(#clip0_198_348)">
<path d="M66.9717 101.65C97.6611 96.9064 104.828 88.2546 110.231 58.3105C115.082 89.3357 123.281 96.2349 153.4 101.998C122.745 106.658 115.322 115.387 110.012 145.408C104.619 113.6 97.39 107.958 66.9717 101.65Z" fill="#F86737"/>
<path d="M150.673 140.281C163.238 126.636 168.95 111.456 163.431 106.374C157.913 101.293 143.254 108.234 130.689 121.879C118.125 135.523 112.413 150.704 117.931 155.785C123.45 160.867 138.109 153.925 150.673 140.281Z" fill="#F86737"/>
<path d="M163.872 96.1221C168.954 90.6037 162.012 75.9447 148.367 63.3803C134.723 50.8159 119.542 45.1039 114.461 50.6223C109.379 56.1407 116.321 70.7997 129.965 83.3641C143.61 95.9285 158.791 101.64 163.872 96.1221Z" fill="#F86737"/>
<path d="M102.699 155.799C108.217 150.718 102.505 135.537 89.9408 121.893C77.3764 108.248 62.7174 101.306 57.199 106.388C51.6806 111.469 57.3925 126.65 69.9569 140.295C82.5213 153.939 97.1803 160.881 102.699 155.799Z" fill="#F86737"/>
<path d="M90.6681 83.3736C104.313 70.8092 111.254 56.1502 106.173 50.6318C101.091 45.1134 85.9108 50.8254 72.2662 63.3898C58.6217 75.9542 51.6799 90.6132 56.7615 96.1316C61.843 101.65 77.0235 95.938 90.6681 83.3736Z" fill="#F86737"/>
</g>
<rect x="55.2521" y="48.677" width="110.133" height="108.63" stroke="url(#paint1_linear_198_348)" stroke-width="0.308003"/>
<defs>
<linearGradient id="paint0_linear_198_348" x1="195.68" y1="194.062" x2="12.1303" y2="-6.26291" gradientUnits="userSpaceOnUse">
<stop offset="0.085" stop-color="#121212"/>
<stop offset="0.495" stop-color="#F86737"/>
<stop offset="0.93"/>
</linearGradient>
<linearGradient id="paint1_linear_198_348" x1="153.358" y1="150.652" x2="56.4715" y2="49.7574" gradientUnits="userSpaceOnUse">
<stop offset="0.085" stop-color="#121212"/>
<stop offset="0.495" stop-color="#F86737"/>
<stop offset="0.93"/>
</linearGradient>
<clipPath id="clip0_198_348">
<rect x="55.0981" y="48.5229" width="110.441" height="108.938" fill="white"/>
</clipPath>
</defs>
</svg>
